<svg width="212" height="40" viewBox="0 0 212 40" fill="none" xmlns="http://www.w3.org/2000/svg">
<path d="M95.07 13.203H96.312V30.087H95.07V13.203ZM112.227 14.103V15.57H108.06V27H106.314V15.57H102.129V14.103H112.227ZM122.007 14.103V15.525H115.815V19.809H120.828V21.177H115.815V25.578H122.007V27H114.06V14.103H122.007ZM133.609 24.336C133.705 24.336 133.792 24.375 133.87 24.453L134.554 25.2C134.026 25.812 133.384 26.289 132.628 26.631C131.878 26.973 130.972 27.144 129.91 27.144C128.98 27.144 128.137 26.985 127.381 26.667C126.625 26.343 125.98 25.893 125.446 25.317C124.912 24.735 124.498 24.039 124.204 23.229C123.91 22.419 123.763 21.528 123.763 20.556C123.763 19.584 123.919 18.693 124.231 17.883C124.549 17.073 124.993 16.377 125.563 15.795C126.133 15.213 126.814 14.763 127.606 14.445C128.404 14.121 129.283 13.959 130.243 13.959C131.191 13.959 132.007 14.106 132.691 14.4C133.381 14.694 133.993 15.093 134.527 15.597L133.96 16.398C133.918 16.458 133.87 16.509 133.816 16.551C133.762 16.587 133.684 16.605 133.582 16.605C133.504 16.605 133.42 16.578 133.33 16.524C133.246 16.464 133.144 16.392 133.024 16.308C132.904 16.224 132.763 16.134 132.601 16.038C132.439 15.942 132.247 15.852 132.025 15.768C131.803 15.684 131.545 15.615 131.251 15.561C130.957 15.501 130.618 15.471 130.234 15.471C129.544 15.471 128.911 15.591 128.335 15.831C127.765 16.065 127.273 16.401 126.859 16.839C126.445 17.277 126.121 17.811 125.887 18.441C125.659 19.071 125.545 19.776 125.545 20.556C125.545 21.36 125.659 22.077 125.887 22.707C126.121 23.337 126.436 23.871 126.832 24.309C127.234 24.741 127.708 25.071 128.254 25.299C128.8 25.527 129.388 25.641 130.018 25.641C130.402 25.641 130.747 25.62 131.053 25.578C131.359 25.53 131.641 25.458 131.899 25.362C132.163 25.266 132.406 25.146 132.628 25.002C132.856 24.852 133.084 24.675 133.312 24.471C133.414 24.381 133.513 24.336 133.609 24.336ZM147.299 27H145.544V21.132H138.596V27H136.841V14.103H138.596V19.854H145.544V14.103H147.299V27ZM155.439 21.24V27H154.521V14.265H157.77C159.24 14.265 160.338 14.55 161.064 15.12C161.79 15.684 162.153 16.515 162.153 17.613C162.153 18.099 162.069 18.543 161.901 18.945C161.733 19.347 161.49 19.701 161.172 20.007C160.86 20.307 160.482 20.556 160.038 20.754C159.594 20.946 159.093 21.072 158.535 21.132C158.679 21.222 158.808 21.342 158.922 21.492L163.305 27H162.504C162.408 27 162.324 26.982 162.252 26.946C162.186 26.91 162.12 26.85 162.054 26.766L157.977 21.6C157.875 21.468 157.764 21.375 157.644 21.321C157.53 21.267 157.35 21.24 157.104 21.24H155.439ZM155.439 20.556H157.653C158.217 20.556 158.721 20.49 159.165 20.358C159.615 20.22 159.993 20.025 160.299 19.773C160.611 19.521 160.848 19.218 161.01 18.864C161.172 18.51 161.253 18.111 161.253 17.667C161.253 16.761 160.956 16.089 160.362 15.651C159.768 15.213 158.904 14.994 157.77 14.994H155.439V20.556ZM175.192 27H174.481C174.397 27 174.328 26.979 174.274 26.937C174.22 26.889 174.178 26.829 174.148 26.757L172.645 23.058H166.39L164.896 26.757C164.872 26.823 164.83 26.88 164.77 26.928C164.71 26.976 164.638 27 164.554 27H163.852L169.063 14.265H169.981L175.192 27ZM166.669 22.374H172.375L169.774 15.939C169.732 15.837 169.69 15.723 169.648 15.597C169.606 15.465 169.564 15.327 169.522 15.183C169.48 15.327 169.438 15.465 169.396 15.597C169.354 15.723 169.312 15.84 169.27 15.948L166.669 22.374ZM187.927 20.628C187.927 21.612 187.78 22.497 187.486 23.283C187.192 24.069 186.778 24.738 186.244 25.29C185.71 25.842 185.071 26.265 184.327 26.559C183.583 26.853 182.758 27 181.852 27H177.208V14.265H181.852C182.758 14.265 183.583 14.412 184.327 14.706C185.071 15 185.71 15.423 186.244 15.975C186.778 16.527 187.192 17.196 187.486 17.982C187.78 18.768 187.927 19.65 187.927 20.628ZM186.973 20.628C186.973 19.74 186.85 18.948 186.604 18.252C186.358 17.556 186.01 16.968 185.56 16.488C185.116 16.008 184.579 15.642 183.949 15.39C183.319 15.138 182.62 15.012 181.852 15.012H178.135V26.253H181.852C182.62 26.253 183.319 26.127 183.949 25.875C184.579 25.623 185.116 25.257 185.56 24.777C186.01 24.297 186.358 23.709 186.604 23.013C186.85 22.317 186.973 21.522 186.973 20.628ZM200.205 27H199.494C199.41 27 199.341 26.979 199.287 26.937C199.233 26.889 199.191 26.829 199.161 26.757L197.658 23.058H191.403L189.909 26.757C189.885 26.823 189.843 26.88 189.783 26.928C189.723 26.976 189.651 27 189.567 27H188.865L194.076 14.265H194.994L200.205 27ZM191.682 22.374H197.388L194.787 15.939C194.745 15.837 194.703 15.723 194.661 15.597C194.619 15.465 194.577 15.327 194.535 15.183C194.493 15.327 194.451 15.465 194.409 15.597C194.367 15.723 194.325 15.84 194.283 15.948L191.682 22.374ZM203.41 21.24V27H202.492V14.265H205.741C207.211 14.265 208.309 14.55 209.035 15.12C209.761 15.684 210.124 16.515 210.124 17.613C210.124 18.099 210.04 18.543 209.872 18.945C209.704 19.347 209.461 19.701 209.143 20.007C208.831 20.307 208.453 20.556 208.009 20.754C207.565 20.946 207.064 21.072 206.506 21.132C206.65 21.222 206.779 21.342 206.893 21.492L211.276 27H210.475C210.379 27 210.295 26.982 210.223 26.946C210.157 26.91 210.091 26.85 210.025 26.766L205.948 21.6C205.846 21.468 205.735 21.375 205.615 21.321C205.501 21.267 205.321 21.24 205.075 21.24H203.41ZM203.41 20.556H205.624C206.188 20.556 206.692 20.49 207.136 20.358C207.586 20.22 207.964 20.025 208.27 19.773C208.582 19.521 208.819 19.218 208.981 18.864C209.143 18.51 209.224 18.111 209.224 17.667C209.224 16.761 208.927 16.089 208.333 15.651C207.739 15.213 206.875 14.994 205.741 14.994H203.41V20.556Z" fill="#0C3455"/>
<path fill-rule="evenodd" clip-rule="evenodd" d="M22.7799 1.33088L32.4878 6.9185C35.1833 8.47174 36.8451 11.3361 36.8451 14.4224V25.5775C36.8451 28.684 35.1833 31.5484 32.4878 33.0815L22.7799 38.6691C20.0844 40.2223 16.7607 40.2223 14.0652 38.6691L4.35737 33.0815C1.66188 31.5484 0 28.684 0 25.5775V14.4224C0 11.316 1.66188 8.45156 4.35737 6.9185L14.0652 1.33088C16.7607 -0.222355 20.0844 -0.222355 22.7799 1.33088ZM18.4428 6.81764C11.167 6.81764 5.26938 12.6877 5.26938 19.9294C5.26938 24.347 7.47847 28.3814 11.086 30.802C11.6332 31.1651 12.383 31.0239 12.7478 30.4793C13.1127 29.9346 12.9708 29.1883 12.4236 28.8252L12.3425 28.7647C9.44435 26.7878 7.68114 23.4998 7.68114 19.9294C7.68114 14.1199 12.3222 9.37947 18.1186 9.2181L13.2545 14.0392C12.9505 14.3418 12.7884 14.7654 12.8086 15.1688C12.8086 15.189 12.8086 15.2293 12.8086 15.2495C12.8086 15.9959 13.4167 16.601 14.1665 16.601H19.6386L12.8897 23.3384C12.7478 23.4796 12.6465 23.6208 12.5857 23.7822C12.4438 23.9839 12.3628 24.2462 12.3628 24.5084C12.3628 25.2144 12.8897 25.7792 13.5788 25.8599C13.822 25.9204 14.0652 25.9204 14.2881 25.8599H19.0306L14.6935 30.1767C14.1057 30.7617 14.1057 31.7098 14.6935 32.2948C14.9569 32.557 15.2812 32.6982 15.6055 32.7184C15.646 32.7385 15.6663 32.7385 15.7068 32.7385C16.5986 32.9201 17.5106 33.0209 18.4226 33.0209C25.6984 33.0209 31.596 27.1509 31.596 19.9092C31.596 15.4512 29.3464 11.3967 25.6984 8.97603C25.1512 8.61294 24.4013 8.75414 24.0365 9.31896C23.6717 9.8636 23.8135 10.61 24.381 10.9731L24.4621 11.0336C27.4008 13.0104 29.2045 16.3186 29.2045 19.9092C29.2045 25.7792 24.4824 30.5398 18.605 30.6205H18.4834L23.4082 25.7187C23.7933 25.3354 23.9352 24.7706 23.8135 24.2865C23.7122 23.641 23.1447 23.1367 22.4759 23.1367H17.3282L23.996 16.5002C24.5837 15.9152 24.5837 14.9671 23.996 14.3821C23.9352 14.3216 23.8541 14.2611 23.7933 14.2006C23.5501 13.9988 23.2663 13.898 22.9218 13.898H17.6524L21.9693 9.60136C22.557 9.01638 22.557 8.0683 21.9693 7.48331C21.6855 7.20091 21.3207 7.0597 20.9357 7.03953C20.125 6.89833 19.294 6.81764 18.4428 6.81764Z" fill="url(#paint0_linear)"/>
<path d="M46.4516 21.2204C45.9247 21.2204 45.4383 21.1195 45.0127 20.938C44.5871 20.7564 44.2425 20.4538 43.9791 20.0504C43.7156 19.647 43.594 19.1023 43.594 18.4165V15.0679C43.594 14.3821 43.7156 13.8576 43.9791 13.434C44.2425 13.0306 44.5668 12.728 45.0127 12.5464C45.4383 12.3649 45.9247 12.264 46.4516 12.264C46.9786 12.264 47.465 12.3649 47.9108 12.5464C48.3364 12.728 48.681 13.0306 48.9444 13.434C49.1876 13.8374 49.3295 14.3821 49.3295 15.0679V18.4165C49.3295 19.1023 49.2079 19.647 48.9444 20.0504C48.7012 20.4538 48.3567 20.7564 47.9108 20.938C47.465 21.1195 46.9988 21.2204 46.4516 21.2204ZM46.4516 19.8285C46.857 19.8285 47.161 19.7075 47.3839 19.4856C47.6068 19.2637 47.7284 18.9006 47.7284 18.4165V15.0679C47.7284 14.5838 47.6068 14.2207 47.3839 13.9988C47.161 13.7769 46.8367 13.6559 46.4516 13.6559C46.0463 13.6559 45.7423 13.7769 45.5193 13.9988C45.2964 14.2207 45.1951 14.5838 45.1951 15.0679V18.4165C45.1951 18.9006 45.2964 19.2637 45.5193 19.4856C45.7423 19.7276 46.0665 19.8285 46.4516 19.8285Z" fill="#0C3455"/>
<path d="M51.4778 21.1397C51.2751 21.1397 51.0927 21.0993 50.9306 21.0187C50.7684 20.938 50.6874 20.8169 50.6874 20.6354V12.7885C50.6874 12.6473 50.7482 12.5263 50.8495 12.4456C50.9711 12.3447 51.113 12.3044 51.2954 12.3044H53.7274C54.2543 12.3044 54.7205 12.3851 55.1258 12.5666C55.5514 12.7482 55.8757 13.0306 56.1189 13.434C56.3621 13.8374 56.4837 14.3619 56.4837 15.0276V15.0881C56.4837 15.7538 56.3621 16.2782 56.0986 16.6817C55.8554 17.0851 55.5109 17.3877 55.065 17.5491C54.6394 17.7306 54.153 17.8315 53.6058 17.8315H52.2479V20.6354C52.2479 20.7968 52.1669 20.938 52.0047 21.0187C51.8426 21.0993 51.6805 21.1397 51.4778 21.1397ZM52.2479 16.601H53.6058C54.0111 16.601 54.3151 16.48 54.5381 16.2581C54.761 16.0362 54.8826 15.6731 54.8826 15.2091V15.0679C54.8826 14.5838 54.761 14.2409 54.5381 14.019C54.3151 13.7971 53.9909 13.6761 53.6058 13.6761H52.2479V16.601Z" fill="#0C3455"/>
<path d="M58.1456 21.1397C57.9835 21.1397 57.8213 21.0993 57.6795 21.0186C57.5376 20.938 57.4565 20.8169 57.4565 20.6354V12.8087C57.4565 12.6473 57.5376 12.5061 57.6795 12.4254C57.8213 12.3447 57.9835 12.3044 58.1456 12.3044H62.4827C62.6651 12.3044 62.7867 12.3851 62.8678 12.5263C62.9489 12.6675 62.9894 12.8289 62.9894 12.9902C62.9894 13.1919 62.9489 13.3533 62.8678 13.4945C62.7867 13.6357 62.6651 13.6962 62.503 13.6962H59.0576V16.1169H60.9019C61.064 16.1169 61.1856 16.1774 61.2667 16.2984C61.3478 16.4194 61.3883 16.5607 61.3883 16.7422C61.3883 16.8834 61.3478 17.0246 61.2667 17.1456C61.1856 17.2868 61.064 17.3474 60.8816 17.3474H59.0374V19.7882H62.4827C62.6449 19.7882 62.7665 19.8487 62.8475 19.9899C62.9286 20.1311 62.9691 20.2925 62.9691 20.4942C62.9691 20.6555 62.9286 20.8169 62.8475 20.9581C62.7665 21.0993 62.6449 21.18 62.4625 21.18H58.1456V21.1397Z" fill="#0C3455"/>
<path d="M64.6918 21.1396C64.4891 21.1396 64.327 21.0993 64.1446 21.0186C63.9622 20.9379 63.9014 20.8169 63.9014 20.6353V12.7885C63.9014 12.6271 63.9824 12.4859 64.1446 12.4052C64.3067 12.3245 64.4891 12.2842 64.6918 12.2842C64.8944 12.2842 65.0566 12.3044 65.1782 12.3447C65.2998 12.385 65.4214 12.4657 65.5227 12.5868C65.624 12.7078 65.7456 12.8893 65.8673 13.1314L68.2182 17.6499V12.7885C68.2182 12.6069 68.2993 12.4859 68.4614 12.4052C68.6235 12.3245 68.8059 12.2842 69.0086 12.2842C69.2113 12.2842 69.3937 12.3245 69.5558 12.4052C69.7179 12.4859 69.799 12.6069 69.799 12.7885V20.6353C69.799 20.7967 69.7179 20.9379 69.5558 21.0186C69.3937 21.0993 69.2113 21.1396 69.0086 21.1396C68.8262 21.1396 68.6438 21.0993 68.4817 21.0388C68.3195 20.9581 68.1979 20.8371 68.0966 20.6555L65.4619 15.7941V20.6555C65.4619 20.8169 65.3808 20.9581 65.2187 21.0388C65.0768 21.0993 64.8944 21.1396 64.6918 21.1396Z" fill="#0C3455"/>
<path d="M45.8639 32.7184C45.337 32.7184 44.9114 32.6377 44.5466 32.4965C44.1818 32.3351 43.9183 32.1737 43.7359 31.9518C43.5535 31.7501 43.4521 31.5887 43.4521 31.4677C43.4521 31.4274 43.4724 31.3668 43.4927 31.3063C43.5332 31.2458 43.5535 31.2055 43.594 31.1651C43.6346 31.1248 43.6751 31.1248 43.7156 31.1248C43.7967 31.1248 43.8575 31.1651 43.9386 31.2861C44.0196 31.387 44.121 31.508 44.2628 31.6492C44.4047 31.7904 44.5871 31.9115 44.8303 32.0123C45.0735 32.1132 45.3978 32.1737 45.7828 32.1737C46.1882 32.1737 46.553 32.1132 46.8367 31.972C47.1205 31.8308 47.3434 31.6291 47.4853 31.3668C47.6271 31.1046 47.7082 30.7617 47.7082 30.3784C47.7082 29.9548 47.6271 29.6119 47.4853 29.3698C47.3434 29.1076 47.1407 28.9059 46.8975 28.7445C46.6543 28.5831 46.3908 28.4621 46.1071 28.3612C45.8234 28.2604 45.5396 28.1595 45.2356 28.0586C44.9519 27.9578 44.6884 27.8166 44.4452 27.6552C44.202 27.4938 43.9994 27.2921 43.8575 27.0299C43.7156 26.7676 43.6346 26.4247 43.6346 25.9809C43.6346 25.5372 43.7156 25.1942 43.8778 24.9118C44.0399 24.6294 44.2426 24.4075 44.4858 24.2663C44.729 24.1049 45.0127 24.0041 45.2964 23.9436C45.5802 23.8831 45.8639 23.8427 46.1274 23.8427C46.3706 23.8427 46.6138 23.8629 46.8367 23.9032C47.0596 23.9436 47.2826 24.0041 47.4853 24.0646C47.6879 24.1251 47.8298 24.2058 47.9514 24.2663C48.073 24.347 48.1135 24.4277 48.1135 24.5286C48.1135 24.5689 48.0933 24.6294 48.073 24.6899C48.0527 24.7504 48.0122 24.7908 47.9717 24.8311C47.9311 24.8715 47.8906 24.8917 47.8298 24.8917C47.769 24.8917 47.6677 24.8513 47.5461 24.7706C47.4245 24.6899 47.2421 24.6092 47.0191 24.5487C46.7962 24.468 46.4922 24.4277 46.1274 24.4277C45.8436 24.4277 45.5396 24.468 45.2559 24.5689C44.9722 24.6496 44.729 24.811 44.5466 25.0329C44.3642 25.2547 44.2628 25.5573 44.2628 25.9608C44.2628 26.3037 44.3439 26.5861 44.4858 26.7878C44.6276 26.9895 44.8303 27.1711 45.0735 27.2921C45.3167 27.4131 45.5802 27.5342 45.8639 27.6149C46.1476 27.7157 46.4314 27.8166 46.7354 27.9376C47.0191 28.0586 47.3029 28.22 47.5258 28.4016C47.769 28.5831 47.9514 28.8252 48.1135 29.1479C48.2554 29.4505 48.3365 29.8539 48.3365 30.3381C48.3365 30.9029 48.2351 31.387 48.0122 31.7501C47.7893 32.1132 47.5055 32.3754 47.1407 32.557C46.7759 32.6175 46.3503 32.7184 45.8639 32.7184Z" fill="#0C3455"/>
<path d="M52.2277 32.7184C51.7615 32.7184 51.3562 32.6377 50.9711 32.4562C50.6063 32.2948 50.3023 32.0124 50.0997 31.6493C49.8767 31.2862 49.7754 30.8021 49.7754 30.1767V26.3239C49.7754 25.7187 49.8767 25.2144 50.0997 24.8513C50.3226 24.4882 50.6063 24.226 50.9711 24.0445C51.3359 23.8831 51.7413 23.7822 52.2074 23.7822C52.6736 23.7822 53.0789 23.8629 53.464 24.0445C53.8288 24.2058 54.1328 24.4882 54.3557 24.8513C54.5786 25.2144 54.68 25.7187 54.68 26.3239V30.1767C54.68 30.7819 54.5786 31.2862 54.3557 31.6493C54.1328 32.0124 53.849 32.2746 53.464 32.4562C53.0789 32.6175 52.6736 32.7184 52.2277 32.7184ZM52.2074 32.1334C52.7749 32.1334 53.241 31.972 53.5653 31.6493C53.8896 31.3265 54.0517 30.8424 54.0517 30.1767V26.3239C54.0517 25.6582 53.8896 25.1741 53.5653 24.8513C53.241 24.5286 52.7952 24.3672 52.2074 24.3672C51.6197 24.3672 51.1738 24.5286 50.8495 24.8513C50.5253 25.1741 50.3631 25.6582 50.3631 26.3239V30.1767C50.3631 30.8424 50.5253 31.3265 50.8495 31.6493C51.1738 31.972 51.6399 32.1334 52.2074 32.1334Z" fill="#0C3455"/>
<path d="M58.936 32.7184C58.4699 32.7184 58.0645 32.6377 57.6795 32.4562C57.3146 32.2948 57.0106 32.0124 56.7877 31.6493C56.5648 31.2862 56.4634 30.8021 56.4634 30.1767V24.0243C56.4634 23.9436 56.4837 23.8629 56.5648 23.8427C56.6256 23.8024 56.6864 23.7822 56.7674 23.7822C56.8485 23.7822 56.9093 23.8024 56.9701 23.8427C57.0309 23.8831 57.0714 23.9436 57.0714 24.0243V30.1767C57.0714 30.8424 57.2336 31.3265 57.5578 31.6493C57.8821 31.972 58.328 32.1334 58.9157 32.1334C59.4832 32.1334 59.9493 31.972 60.2736 31.6493C60.5979 31.3265 60.76 30.8424 60.76 30.1767V24.0243C60.76 23.9436 60.8005 23.8629 60.8613 23.8427C60.9221 23.8024 60.9829 23.7822 61.064 23.7822C61.1451 23.7822 61.2059 23.8024 61.2667 23.8427C61.3275 23.8831 61.368 23.9436 61.368 24.0243V30.1767C61.368 30.7819 61.2667 31.2862 61.0437 31.6493C60.8208 32.0124 60.5371 32.2746 60.152 32.4562C59.8075 32.6175 59.3819 32.7184 58.936 32.7184Z" fill="#0C3455"/>
<path d="M67.8737 32.6578C67.7926 32.6578 67.7116 32.6175 67.6508 32.4965C67.59 32.3956 67.5292 32.3149 67.4886 32.2342L65.5836 28.5226H63.9014V32.3956C63.9014 32.4763 63.8609 32.5368 63.8001 32.5772C63.7393 32.6175 63.6582 32.6377 63.5974 32.6377C63.5163 32.6377 63.4353 32.6175 63.3745 32.5772C63.3137 32.5368 63.2934 32.4763 63.2934 32.3956V24.0444C63.2934 23.9839 63.3137 23.9234 63.3542 23.8831C63.3947 23.8427 63.4555 23.8225 63.5366 23.8024H65.6241C66.07 23.8024 66.4956 23.8831 66.8806 24.0243C67.2657 24.1655 67.59 24.4075 67.8129 24.7504C68.0359 25.0934 68.1574 25.5573 68.1574 26.1625C68.1574 26.6668 68.0764 27.0904 67.894 27.4131C67.7116 27.7359 67.4886 27.978 67.1846 28.1393C66.8806 28.3007 66.5564 28.4217 66.1713 28.4823L68.1169 32.2342C68.1372 32.2544 68.1372 32.2746 68.1372 32.3149C68.1372 32.3351 68.1372 32.3553 68.1372 32.3754C68.1372 32.436 68.1169 32.4763 68.0966 32.5368C68.0561 32.5772 68.0156 32.6175 67.975 32.6578C67.975 32.6377 67.9345 32.6578 67.8737 32.6578ZM63.9014 27.9578H65.6444C66.2118 27.9578 66.678 27.8166 67.0428 27.5342C67.4076 27.2518 67.59 26.7878 67.59 26.1423C67.59 25.4968 67.4076 25.053 67.0428 24.7706C66.678 24.4882 66.2118 24.3672 65.6444 24.3672H63.9014V27.9578Z" fill="#0C3455"/>
<path d="M71.9473 32.7184C71.5015 32.7184 71.0961 32.6377 70.7111 32.4562C70.3463 32.2948 70.0423 32.0124 69.8193 31.6493C69.5964 31.2862 69.4951 30.8021 69.4951 30.1767V26.3239C69.4951 25.7187 69.6167 25.2144 69.8396 24.8513C70.0625 24.4882 70.3665 24.226 70.7313 24.0445C71.0961 23.8831 71.5217 23.7822 71.9676 23.7822C72.4945 23.7822 72.9404 23.8831 73.285 24.0646C73.6498 24.2462 73.9132 24.4882 74.0956 24.7908C74.278 25.0934 74.3794 25.4162 74.3794 25.7389C74.3794 25.9003 74.3591 26.0011 74.2983 26.0617C74.2578 26.1222 74.1767 26.1423 74.0754 26.1423C73.9538 26.1423 73.8727 26.1222 73.8322 26.0617C73.7916 26.0011 73.7714 25.9406 73.7714 25.9003C73.7714 25.7591 73.7308 25.6179 73.6903 25.4363C73.6498 25.2548 73.5484 25.0934 73.4268 24.932C73.3052 24.7707 73.1228 24.6294 72.8796 24.5286C72.6364 24.4277 72.3324 24.3672 71.9473 24.3672C71.3393 24.3672 70.8732 24.5286 70.5489 24.8513C70.2247 25.1741 70.0625 25.6582 70.0625 26.3239V30.1767C70.0625 30.8424 70.2247 31.3467 70.5489 31.6493C70.8732 31.972 71.3596 32.1132 71.9879 32.1132C72.3729 32.1132 72.6769 32.0729 72.8999 31.9519C73.1228 31.851 73.3052 31.73 73.4066 31.5686C73.5282 31.4072 73.6092 31.2458 73.6498 31.0643C73.6903 30.8827 73.7308 30.7214 73.7511 30.5802C73.7511 30.4995 73.7916 30.439 73.8322 30.3986C73.8727 30.3583 73.9538 30.3179 74.0551 30.3179C74.1564 30.3179 74.2375 30.3381 74.278 30.3986C74.3186 30.4591 74.3591 30.56 74.3591 30.7214C74.3591 31.0441 74.2578 31.3669 74.0754 31.6694C73.893 31.972 73.6092 32.2141 73.2444 32.3956C72.9201 32.6175 72.4743 32.7184 71.9473 32.7184Z" fill="#0C3455"/>
<path d="M76.1628 32.6377C76.0818 32.6377 76.021 32.6175 75.9602 32.5772C75.8994 32.5368 75.8791 32.4763 75.8791 32.3956V24.0646C75.8791 23.9839 75.8994 23.9234 75.9602 23.8831C76.021 23.8427 76.0818 23.8226 76.1628 23.8226H80.4999C80.581 23.8226 80.6621 23.8629 80.7026 23.9234C80.7431 23.9839 80.7634 24.0445 80.7634 24.105C80.7634 24.1857 80.7431 24.2462 80.7026 24.3067C80.6621 24.3672 80.6013 24.4076 80.5202 24.4076H76.5276V27.9578H78.453C78.5341 27.9578 78.5949 27.978 78.6354 28.0385C78.6759 28.099 78.6962 28.1595 78.6962 28.2402C78.6962 28.3007 78.6759 28.3612 78.6354 28.4218C78.5949 28.4823 78.534 28.5024 78.4327 28.5024H76.5074V32.0729H80.4999C80.581 32.0729 80.6418 32.093 80.6823 32.1737C80.7229 32.2343 80.7431 32.3149 80.7431 32.3755C80.7431 32.436 80.7229 32.4965 80.6823 32.557C80.6418 32.6175 80.581 32.6579 80.4797 32.6579H76.1628V32.6377Z" fill="#0C3455"/>
<defs>
<linearGradient id="paint0_linear" x1="6.66978" y1="31.2865" x2="32.3839" y2="9.98743" gradientUnits="userSpaceOnUse">
<stop stop-color="#EF4123"/>
<stop offset="1" stop-color="#F7941E"/>
</linearGradient>
</defs>
</svg>
