<svg width="17" height="16" viewBox="0 0 17 16" fill="none" xmlns="http://www.w3.org/2000/svg">
<path fill-rule="evenodd" clip-rule="evenodd" d="M1.43011 2.16577C1.43011 1.68252 1.82187 1.29077 2.30511 1.29077H8.61611C9.09936 1.29077 9.49111 1.68252 9.49111 2.16577V2.16577C9.49111 2.64902 9.09936 3.04077 8.61611 3.04077H2.30512C1.82187 3.04077 1.43011 2.64902 1.43011 2.16577V2.16577Z" stroke="#0E3255" stroke-linecap="round" stroke-linejoin="round"/>
<path fill-rule="evenodd" clip-rule="evenodd" d="M7.63077 8.58264C7.63077 8.09939 8.02252 7.70764 8.50577 7.70764H14.8168C15.3 7.70764 15.6918 8.09939 15.6918 8.58264V8.58264C15.6918 9.06589 15.3 9.45764 14.8168 9.45764H8.50577C8.02252 9.45764 7.63077 9.06589 7.63077 8.58264V8.58264Z" stroke="#0E3255" stroke-linecap="round" stroke-linejoin="round"/>
<path fill-rule="evenodd" clip-rule="evenodd" d="M1.43011 13.8326C1.43011 13.3494 1.82187 12.9576 2.30512 12.9576H8.61611C9.09936 12.9576 9.49111 13.3494 9.49111 13.8326V13.8326C9.49111 14.3159 9.09936 14.7076 8.61611 14.7076H2.30512C1.82187 14.7076 1.43011 14.3159 1.43011 13.8326V13.8326Z" stroke="#0E3255" stroke-linecap="round" stroke-linejoin="round"/>
<path d="M5.77055 3.04175V5.08341C5.77055 5.56666 6.18697 5.95841 6.70066 5.95841H8.56089C9.07458 5.95841 9.491 6.35017 9.491 6.83341V7.70842" stroke="#0E3255" stroke-linecap="round" stroke-linejoin="round"/>
<path d="M12.5914 9.45825V12.6666C12.5914 13.1498 12.1749 13.5416 11.6613 13.5416H9.49099" stroke="#0E3255" stroke-linecap="round" stroke-linejoin="round"/>
</svg>
