<svg width="16" height="16" viewBox="0 0 16 16" fill="none" xmlns="http://www.w3.org/2000/svg">
<path d="M10.923 5.09497L12.7355 3.2948" stroke="#375A7E" stroke-linecap="round" stroke-linejoin="round"/>
<path fill-rule="evenodd" clip-rule="evenodd" d="M13.548 3.62606C14.1923 3.62606 14.7147 3.10372 14.7147 2.45939C14.7147 1.81506 14.1923 1.29272 13.548 1.29272C12.9037 1.29272 12.3813 1.81506 12.3813 2.45939C12.3813 3.10372 12.9037 3.62606 13.548 3.62606Z" stroke="#375A7E" stroke-linecap="round" stroke-linejoin="round"/>
<path d="M11.4842 11.4877L12.7174 12.729" stroke="#375A7E" stroke-linecap="round" stroke-linejoin="round"/>
<path fill-rule="evenodd" clip-rule="evenodd" d="M13.5539 14.7083C14.1983 14.7083 14.7206 14.186 14.7206 13.5417C14.7206 12.8973 14.1983 12.375 13.5539 12.375C12.9096 12.375 12.3873 12.8973 12.3873 13.5417C12.3873 14.186 12.9096 14.7083 13.5539 14.7083Z" stroke="#375A7E" stroke-linecap="round" stroke-linejoin="round"/>
<path d="M5.08986 5.09497L3.27686 3.2948" stroke="#375A7E" stroke-linecap="round" stroke-linejoin="round"/>
<path fill-rule="evenodd" clip-rule="evenodd" d="M2.4647 3.62606C3.10903 3.62606 3.63137 3.10372 3.63137 2.45939C3.63137 1.81506 3.10903 1.29272 2.4647 1.29272C1.82037 1.29272 1.29803 1.81506 1.29803 2.45939C1.29803 3.10372 1.82037 3.62606 2.4647 3.62606Z" stroke="#375A7E" stroke-linecap="round" stroke-linejoin="round"/>
<path d="M4.52855 11.4877L3.2948 12.729" stroke="#375A7E" stroke-linecap="round" stroke-linejoin="round"/>
<path fill-rule="evenodd" clip-rule="evenodd" d="M2.45835 14.7083C3.10269 14.7083 3.62502 14.186 3.62502 13.5417C3.62502 12.8973 3.10269 12.375 2.45835 12.375C1.81402 12.375 1.29169 12.8973 1.29169 13.5417C1.29169 14.186 1.81402 14.7083 2.45835 14.7083Z" stroke="#375A7E" stroke-linecap="round" stroke-linejoin="round"/>
<path d="M9.16504 10.9167V10.0618H9.36052C9.53888 10.0833 9.71751 10.0239 9.84868 9.89945C9.97984 9.77499 10.0502 9.59816 10.0408 9.41622V8.64058H10.794C10.8333 8.64059 10.8702 8.62154 10.8932 8.58935C10.9163 8.55716 10.9228 8.51571 10.9107 8.47785C10.4483 7.0264 10.1137 5.41222 8.5877 5.12903C7.91447 4.99669 7.21732 5.15496 6.66395 5.56576C6.11059 5.97656 5.75109 6.60272 5.67195 7.29359C5.6161 8.18626 6.00738 9.04741 6.71277 9.58429V10.9167" stroke="#375A7E" stroke-linecap="round" stroke-linejoin="round"/>
</svg>
