<svg width="16" height="15" viewBox="0 0 16 15" fill="none" xmlns="http://www.w3.org/2000/svg">
<path d="M6.33063 14.1599C6.81403 13.502 7.08985 12.7243 7.12513 11.9199" stroke="#375A7E" stroke-linecap="round" stroke-linejoin="round"/>
<path d="M9.6695 14.1599C9.1861 13.502 8.91027 12.7243 8.875 11.9199" stroke="#375A7E" stroke-linecap="round" stroke-linejoin="round"/>
<path d="M5.375 14.1605H10.625" stroke="#375A7E" stroke-linecap="round" stroke-linejoin="round"/>
<path d="M1.29166 10.2406H14.7083" stroke="#375A7E" stroke-linecap="round" stroke-linejoin="round"/>
<path fill-rule="evenodd" clip-rule="evenodd" d="M1.29166 2.28052C1.29166 1.72823 1.73937 1.28052 2.29166 1.28052H13.7083C14.2606 1.28052 14.7083 1.72823 14.7083 2.28052V10.9205C14.7083 11.4728 14.2606 11.9205 13.7083 11.9205H2.29166C1.73937 11.9205 1.29166 11.4728 1.29166 10.9205V2.28052Z" stroke="#375A7E" stroke-linecap="round" stroke-linejoin="round"/>
<path fill-rule="evenodd" clip-rule="evenodd" d="M8.83842 5.76009C8.83866 6.08562 8.63457 6.37922 8.32136 6.50396C8.00815 6.62869 7.6475 6.55998 7.40764 6.32987C7.16779 6.09977 7.09596 5.7536 7.22567 5.45283C7.35538 5.15206 7.66108 4.95593 8.00017 4.95593C8.4629 4.95593 8.8381 5.31588 8.83842 5.76009Z" stroke="#375A7E" stroke-width="0.8" stroke-linecap="round" stroke-linejoin="round"/>
<path fill-rule="evenodd" clip-rule="evenodd" d="M8.55083 3.35195L8.74158 3.95451C8.80822 4.16106 9.02963 4.28321 9.24908 4.23451L9.88491 4.09283C10.1325 4.03921 10.3877 4.14678 10.5141 4.35811C10.6405 4.56944 10.6086 4.83519 10.4356 5.01347L9.99049 5.47995C9.83721 5.63934 9.83721 5.88504 9.99049 6.04443L10.4356 6.50587C10.6081 6.68422 10.6396 6.94961 10.5133 7.16065C10.387 7.37169 10.1323 7.47922 9.88491 7.42595L9.24908 7.28427C9.02963 7.23557 8.80822 7.35772 8.74158 7.56427L8.55083 8.16795C8.47758 8.40112 8.25385 8.56067 8.00016 8.56067C7.74647 8.56067 7.52275 8.40112 7.44949 8.16795L7.25874 7.56539C7.1921 7.35884 6.9707 7.23669 6.75124 7.28539L6.11541 7.42707C5.86802 7.48034 5.61333 7.37281 5.48702 7.16177C5.36071 6.95073 5.39222 6.68534 5.56474 6.50699L6.00983 6.04555C6.16383 5.886 6.16383 5.6395 6.00983 5.47995L5.56474 5.01907C5.39005 4.841 5.35724 4.57418 5.48395 4.36195C5.61066 4.14973 5.86706 4.04204 6.11541 4.09675L6.75124 4.23843C6.9707 4.28713 7.1921 4.16498 7.25874 3.95843L7.44949 3.35195C7.52275 3.11879 7.74647 2.95923 8.00016 2.95923C8.25385 2.95923 8.47758 3.11879 8.55083 3.35195Z" stroke="#375A7E" stroke-width="0.8" stroke-linecap="round" stroke-linejoin="round"/>
</svg>
