<svg width="16" height="16" viewBox="0 0 16 16" fill="none" xmlns="http://www.w3.org/2000/svg">
<path d="M10.923 5.09509L12.7355 3.29492" stroke="#375A7E" stroke-linecap="round" stroke-linejoin="round"/>
<path fill-rule="evenodd" clip-rule="evenodd" d="M13.548 3.6263C14.1923 3.6263 14.7147 3.10397 14.7147 2.45964C14.7147 1.8153 14.1923 1.29297 13.548 1.29297C12.9037 1.29297 12.3813 1.8153 12.3813 2.45964C12.3813 3.10397 12.9037 3.6263 13.548 3.6263Z" stroke="#375A7E" stroke-linecap="round" stroke-linejoin="round"/>
<path d="M11.4842 11.4878L12.7174 12.7291" stroke="#375A7E" stroke-linecap="round" stroke-linejoin="round"/>
<path fill-rule="evenodd" clip-rule="evenodd" d="M13.5539 14.7083C14.1983 14.7083 14.7206 14.186 14.7206 13.5417C14.7206 12.8973 14.1983 12.375 13.5539 12.375C12.9096 12.375 12.3873 12.8973 12.3873 13.5417C12.3873 14.186 12.9096 14.7083 13.5539 14.7083Z" stroke="#375A7E" stroke-linecap="round" stroke-linejoin="round"/>
<path d="M5.08986 5.09509L3.27686 3.29492" stroke="#375A7E" stroke-linecap="round" stroke-linejoin="round"/>
<path fill-rule="evenodd" clip-rule="evenodd" d="M2.4647 3.6263C3.10903 3.6263 3.63137 3.10397 3.63137 2.45964C3.63137 1.8153 3.10903 1.29297 2.4647 1.29297C1.82037 1.29297 1.29803 1.8153 1.29803 2.45964C1.29803 3.10397 1.82037 3.6263 2.4647 3.6263Z" stroke="#375A7E" stroke-linecap="round" stroke-linejoin="round"/>
<path d="M4.52855 11.4878L3.2948 12.7291" stroke="#375A7E" stroke-linecap="round" stroke-linejoin="round"/>
<path fill-rule="evenodd" clip-rule="evenodd" d="M2.45835 14.7083C3.10269 14.7083 3.62502 14.186 3.62502 13.5417C3.62502 12.8973 3.10269 12.375 2.45835 12.375C1.81402 12.375 1.29169 12.8973 1.29169 13.5417C1.29169 14.186 1.81402 14.7083 2.45835 14.7083Z" stroke="#375A7E" stroke-linecap="round" stroke-linejoin="round"/>
<path d="M9.16504 10.9168V10.0619H9.36052C9.53888 10.0835 9.71751 10.024 9.84868 9.89958C9.97984 9.77511 10.0502 9.59828 10.0408 9.41635V8.6407H10.794C10.8333 8.64071 10.8702 8.62167 10.8932 8.58947C10.9163 8.55728 10.9228 8.51583 10.9107 8.47797C10.4483 7.02652 10.1137 5.41234 8.5877 5.12915C7.91447 4.99682 7.21732 5.15508 6.66395 5.56589C6.11059 5.97669 5.75109 6.60284 5.67195 7.29371C5.6161 8.18639 6.00738 9.04754 6.71277 9.58441V10.9168" stroke="#375A7E" stroke-linecap="round" stroke-linejoin="round"/>
</svg>
