<svg width="34" height="33" viewBox="0 0 34 33" fill="none" xmlns="http://www.w3.org/2000/svg">
<path d="M13.0181 31.6668C14.171 30.1003 14.8289 28.2488 14.913 26.3335" stroke="#FF6D00" stroke-linecap="round" stroke-linejoin="round"/>
<path d="M20.9819 31.6668C19.8289 30.1003 19.171 28.2488 19.0869 26.3335" stroke="#FF6D00" stroke-linecap="round" stroke-linejoin="round"/>
<path d="M10.7393 31.6665H23.261" stroke="#FF6D00" stroke-linecap="round" stroke-linejoin="round"/>
<path d="M1 22.3335H33" stroke="#FF6D00" stroke-linecap="round" stroke-linejoin="round"/>
<path fill-rule="evenodd" clip-rule="evenodd" d="M1 2C1 1.44772 1.44772 1 2 1H32C32.5523 1 33 1.44772 33 2V25.3333C33 25.8856 32.5523 26.3333 32 26.3333H2C1.44772 26.3333 1 25.8856 1 25.3333V2Z" stroke="#FF6D00" stroke-linecap="round" stroke-linejoin="round"/>
<path d="M12.1306 8.66699L8.65234 12.1392L12.1306 15.6114" stroke="#FF6D00" stroke-linecap="round" stroke-linejoin="round"/>
<path d="M22.5652 15.6113L26.0435 12.1391L22.5652 8.66688" stroke="#FF6D00" stroke-linecap="round" stroke-linejoin="round"/>
<path d="M19.0003 8.3335L15.667 17.6668" stroke="#FF6D00" stroke-linecap="round"/>
</svg>
