<svg width="32" height="32" viewBox="0 0 32 32" fill="none" xmlns="http://www.w3.org/2000/svg">
<path d="M12.1846 30.08C13.2895 28.5761 13.9199 26.7986 14.0006 24.96" stroke="#FF6D00" stroke-linecap="round" stroke-linejoin="round"/>
<path d="M19.816 30.08C18.7111 28.5761 18.0806 26.7986 18 24.96" stroke="#FF6D00" stroke-linecap="round" stroke-linejoin="round"/>
<path d="M10 30.0811H22" stroke="#FF6D00" stroke-linecap="round" stroke-linejoin="round"/>
<path d="M0.666992 21.1211H31.3337" stroke="#FF6D00" stroke-linecap="round" stroke-linejoin="round"/>
<path fill-rule="evenodd" clip-rule="evenodd" d="M0.666992 1.64111C0.666992 1.08883 1.11471 0.641113 1.66699 0.641113H30.3337C30.8859 0.641113 31.3337 1.08883 31.3337 1.64111V23.9611C31.3337 24.5134 30.8859 24.9611 30.3337 24.9611H1.66699C1.11471 24.9611 0.666992 24.5134 0.666992 23.9611V1.64111Z" stroke="#FF6D00" stroke-linecap="round" stroke-linejoin="round"/>
<path fill-rule="evenodd" clip-rule="evenodd" d="M17.916 10.8801C17.9166 11.6241 17.4501 12.2952 16.7342 12.5803C16.0183 12.8654 15.1939 12.7084 14.6457 12.1824C14.0974 11.6565 13.9333 10.8652 14.2298 10.1778C14.5262 9.49028 15.225 9.04199 16 9.04199C17.0577 9.04199 17.9153 9.86472 17.916 10.8801Z" stroke="#FF6D00" stroke-linecap="round" stroke-linejoin="round"/>
<path fill-rule="evenodd" clip-rule="evenodd" d="M17.2594 5.37568L17.6954 6.75296C17.8477 7.22507 18.3538 7.50428 18.8554 7.39296L20.3087 7.06912C20.8747 6.94655 21.4579 7.19242 21.7468 7.67547C22.0357 8.15852 21.963 8.76594 21.5674 9.17344L20.5501 10.2397C20.1997 10.604 20.1997 11.1656 20.5501 11.5299L21.5674 12.5846C21.9617 12.9923 22.0337 13.5989 21.745 14.0813C21.4563 14.5636 20.8742 14.8094 20.3087 14.6877L18.8554 14.3638C18.3538 14.2525 17.8477 14.5317 17.6954 15.0038L17.2594 16.3837C17.0919 16.9166 16.5806 17.2813 16.0007 17.2813C15.4209 17.2813 14.9095 16.9166 14.7421 16.3837L14.3061 15.0064C14.1537 14.5343 13.6477 14.2551 13.1461 14.3664L11.6927 14.6902C11.1273 14.812 10.5451 14.5662 10.2564 14.0838C9.96769 13.6015 10.0397 12.9948 10.434 12.5872L11.4514 11.5325C11.8034 11.1678 11.8034 10.6044 11.4514 10.2397L10.434 9.18624C10.0347 8.77922 9.95975 8.16935 10.2494 7.68426C10.539 7.19917 11.1251 6.95303 11.6927 7.07808L13.1461 7.40192C13.6477 7.51324 14.1537 7.23403 14.3061 6.76192L14.7421 5.37568C14.9095 4.84273 15.4209 4.47803 16.0007 4.47803C16.5806 4.47803 17.0919 4.84273 17.2594 5.37568Z" stroke="#FF6D00" stroke-linecap="round" stroke-linejoin="round"/>
</svg>
