<svg width="17" height="16" viewBox="0 0 17 16" fill="none" xmlns="http://www.w3.org/2000/svg">
<path d="M8.85335 0.0600586C4.44383 0.0600586 0.868164 3.69603 0.868164 8.18158C0.868164 11.7699 3.15616 14.8143 6.32892 15.8882C6.728 15.9634 6.87451 15.712 6.87451 15.4975C6.87451 15.3038 6.86711 14.664 6.86367 13.9854C4.64218 14.4767 4.17342 13.0272 4.17342 13.0272C3.81018 12.0884 3.28681 11.8388 3.28681 11.8388C2.56231 11.3347 3.34142 11.3451 3.34142 11.3451C4.14327 11.4022 4.56549 12.182 4.56549 12.182C5.27768 13.4236 6.43352 13.0647 6.88919 12.8572C6.96086 12.3324 7.1678 11.9738 7.39616 11.7711C5.62254 11.5658 3.75808 10.8694 3.75808 7.75739C3.75808 6.87069 4.07001 6.14619 4.58082 5.57742C4.49792 5.37273 4.22459 4.54682 4.65818 3.42812C4.65818 3.42812 5.32873 3.20984 6.85468 4.26062C7.49163 4.08067 8.17474 3.99043 8.85335 3.98733C9.53197 3.99043 10.2156 4.08067 10.8538 4.26062C12.3778 3.20984 13.0475 3.42812 13.0475 3.42812C13.4821 4.54682 13.2087 5.37273 13.1257 5.57742C13.6377 6.14619 13.9476 6.87069 13.9476 7.75739C13.9476 10.8768 12.0795 11.5636 10.3014 11.7647C10.5878 12.0167 10.843 12.511 10.843 13.2687C10.843 14.3553 10.8338 15.2299 10.8338 15.4975C10.8338 15.7136 10.9775 15.9669 11.3823 15.8871C14.5533 14.812 16.8384 11.7687 16.8384 8.18158C16.8384 3.69603 13.2633 0.0600586 8.85335 0.0600586Z" fill="#404659"/>
<path d="M3.89256 11.7209C3.87498 11.7614 3.81256 11.7734 3.75571 11.7457C3.69779 11.7192 3.66526 11.6642 3.68404 11.6237C3.70123 11.5821 3.76377 11.5707 3.82156 11.5983C3.87961 11.6249 3.91266 11.6805 3.89256 11.7209Z" fill="#404659"/>
<path d="M4.2158 12.0877C4.17772 12.1237 4.10327 12.107 4.05276 12.0502C4.00053 11.9936 3.99074 11.9179 4.02936 11.8814C4.06863 11.8455 4.14083 11.8623 4.19319 11.919C4.24542 11.9763 4.2556 12.0514 4.2158 12.0877Z" fill="#404659"/>
<path d="M4.53086 12.5554C4.48194 12.59 4.40194 12.5575 4.35248 12.4853C4.30356 12.4131 4.30356 12.3265 4.35354 12.2918C4.40313 12.2571 4.48194 12.2883 4.53205 12.36C4.58084 12.4333 4.58084 12.52 4.53086 12.5554Z" fill="#404659"/>
<path d="M4.96245 13.0073C4.91868 13.0564 4.82545 13.0432 4.75722 12.9762C4.68741 12.9107 4.66797 12.8178 4.71187 12.7687C4.75617 12.7195 4.84992 12.7334 4.91868 12.7998C4.98797 12.8652 5.00912 12.9588 4.96245 13.0073Z" fill="#404659"/>
<path d="M5.55716 13.2697C5.53786 13.3333 5.44807 13.3622 5.35763 13.3352C5.26731 13.3073 5.20821 13.2328 5.22645 13.1685C5.24523 13.1045 5.33541 13.0744 5.42652 13.1033C5.5167 13.131 5.57594 13.205 5.55716 13.2697Z" fill="#404659"/>
<path d="M6.21082 13.3185C6.21306 13.3855 6.13637 13.441 6.04143 13.4421C5.94596 13.4444 5.86873 13.3902 5.86768 13.3243C5.86768 13.2566 5.94265 13.2016 6.03812 13.2C6.13306 13.1981 6.21082 13.2519 6.21082 13.3185Z" fill="#404659"/>
<path d="M6.81897 13.2132C6.83034 13.2786 6.76436 13.3457 6.67008 13.3635C6.57739 13.3808 6.49157 13.3405 6.4798 13.2756C6.46829 13.2087 6.53547 13.1415 6.62803 13.1242C6.72244 13.1075 6.80694 13.1468 6.81897 13.2132Z" fill="#404659"/>
</svg>
