<svg width="26" height="26" viewBox="0 0 26 26" fill="none" xmlns="http://www.w3.org/2000/svg">
<path d="M9.08692 10.6427C9.0839 8.58981 10.6671 6.88318 12.7145 6.7324C14.7619 6.58162 16.578 8.03789 16.8758 10.0691C17.1735 12.1003 15.8518 14.0166 13.8473 14.4598C13.3598 14.556 13.0064 14.9804 13 15.4772V16.6386" stroke="#113B65" stroke-linecap="round" stroke-linejoin="round"/>
<path d="M13 19.252C13.1441 19.252 13.2609 19.3687 13.2609 19.5128C13.2609 19.6569 13.1441 19.7737 13 19.7737C12.8559 19.7737 12.7391 19.6569 12.7391 19.5128C12.7391 19.3687 12.8559 19.252 13 19.252" stroke="#113B65" stroke-linecap="round" stroke-linejoin="round"/>
<path fill-rule="evenodd" clip-rule="evenodd" d="M13 25C19.6274 25 25 19.6274 25 13C25 6.37258 19.6274 1 13 1C6.37258 1 1 6.37258 1 13C1 19.6274 6.37258 25 13 25Z" stroke="#113B65" stroke-linecap="round" stroke-linejoin="round"/>
</svg>
