<svg width="16" height="16" viewBox="0 0 16 16" fill="none" xmlns="http://www.w3.org/2000/svg">
<path d="M10.923 5.0946L12.7354 3.29443" stroke="white" stroke-linecap="round" stroke-linejoin="round"/>
<path fill-rule="evenodd" clip-rule="evenodd" d="M13.5479 3.62484C14.1922 3.62484 14.7146 3.1025 14.7146 2.45817C14.7146 1.81384 14.1922 1.2915 13.5479 1.2915C12.9036 1.2915 12.3812 1.81384 12.3812 2.45817C12.3812 3.1025 12.9036 3.62484 13.5479 3.62484Z" stroke="white" stroke-linecap="round" stroke-linejoin="round"/>
<path d="M11.4841 11.4878L12.7173 12.7291" stroke="white" stroke-linecap="round" stroke-linejoin="round"/>
<path fill-rule="evenodd" clip-rule="evenodd" d="M13.5539 14.7083C14.1982 14.7083 14.7205 14.186 14.7205 13.5417C14.7205 12.8973 14.1982 12.375 13.5539 12.375C12.9095 12.375 12.3872 12.8973 12.3872 13.5417C12.3872 14.186 12.9095 14.7083 13.5539 14.7083Z" stroke="white" stroke-linecap="round" stroke-linejoin="round"/>
<path d="M5.08973 5.0946L3.27673 3.29443" stroke="white" stroke-linecap="round" stroke-linejoin="round"/>
<path fill-rule="evenodd" clip-rule="evenodd" d="M2.46464 3.62484C3.10897 3.62484 3.63131 3.1025 3.63131 2.45817C3.63131 1.81384 3.10897 1.2915 2.46464 1.2915C1.82031 1.2915 1.29797 1.81384 1.29797 2.45817C1.29797 3.1025 1.82031 3.62484 2.46464 3.62484Z" stroke="white" stroke-linecap="round" stroke-linejoin="round"/>
<path d="M4.52855 11.4878L3.2948 12.7291" stroke="white" stroke-linecap="round" stroke-linejoin="round"/>
<path fill-rule="evenodd" clip-rule="evenodd" d="M2.45829 14.7083C3.10262 14.7083 3.62496 14.186 3.62496 13.5417C3.62496 12.8973 3.10262 12.375 2.45829 12.375C1.81396 12.375 1.29163 12.8973 1.29163 13.5417C1.29163 14.186 1.81396 14.7083 2.45829 14.7083Z" stroke="white" stroke-linecap="round" stroke-linejoin="round"/>
<path d="M9.16497 10.9168V10.0619H9.36046C9.53882 10.0835 9.71745 10.024 9.84862 9.89958C9.97978 9.77511 10.0501 9.59828 10.0408 9.41635V8.6407H10.794C10.8332 8.64071 10.8701 8.62167 10.8932 8.58947C10.9163 8.55728 10.9228 8.51583 10.9106 8.47797C10.4482 7.02652 10.1137 5.41234 8.58764 5.12915C7.91441 4.99682 7.21726 5.15508 6.66389 5.56589C6.11052 5.97669 5.75103 6.60284 5.67189 7.29371C5.61604 8.18639 6.00732 9.04754 6.7127 9.58441V10.9168" stroke="white" stroke-linecap="round" stroke-linejoin="round"/>
</svg>
