<svg width="24" height="21" viewBox="0 0 24 21" fill="none" xmlns="http://www.w3.org/2000/svg">
<path fill-rule="evenodd" clip-rule="evenodd" d="M2.1 0C0.940202 0 0 0.940202 0 2.1C0 3.2598 0.9402 4.2 2.1 4.2H21.9C23.0598 4.2 24 3.2598 24 2.1C24 0.940202 23.0598 0 21.9 0H2.1ZM0 10.5C0 9.34023 0.940202 8.40002 2.1 8.40002H21.9C23.0598 8.40002 24 9.34023 24 10.5C24 11.6598 23.0598 12.6 21.9 12.6H2.1C0.9402 12.6 0 11.6598 0 10.5ZM0 18.9C0 17.7402 0.940202 16.8 2.1 16.8H21.9C23.0598 16.8 24 17.7402 24 18.9C24 20.0598 23.0598 21 21.9 21H2.1C0.9402 21 0 20.0598 0 18.9Z" fill="#404659"/>
</svg>
