<svg width="17" height="16" viewBox="0 0 17 16" fill="none" xmlns="http://www.w3.org/2000/svg">
<path fill-rule="evenodd" clip-rule="evenodd" d="M8.83887 0C4.42059 0 0.838867 3.58172 0.838867 8C0.838867 12.4183 4.42059 16 8.83887 16C13.2571 16 16.8389 12.4183 16.8389 8C16.8389 3.58172 13.2571 0 8.83887 0ZM8.61606 6.77933L8.59927 6.50251C8.54891 5.78504 8.99098 5.12972 9.69046 4.8755C9.94786 4.78511 10.3843 4.77381 10.6697 4.8529C10.7816 4.8868 10.9943 4.99978 11.1454 5.10147L11.4196 5.2879L11.7217 5.19186C11.8896 5.14102 12.1135 5.05628 12.2142 4.99978C12.3093 4.94894 12.3932 4.92069 12.3932 4.93764C12.3932 5.03368 12.1862 5.36134 12.0127 5.54212C11.7777 5.79634 11.8449 5.81894 12.3205 5.64946C12.6059 5.55342 12.6115 5.55342 12.5555 5.66076C12.5219 5.71725 12.3485 5.91498 12.1638 6.09576C11.8504 6.40647 11.8337 6.44037 11.8337 6.70024C11.8337 7.10134 11.6434 7.93744 11.4531 8.39504C11.1006 9.25374 10.3452 10.1407 9.58973 10.587C8.52652 11.2141 7.11078 11.3722 5.91886 11.005C5.52156 10.8808 4.83887 10.5644 4.83887 10.5079C4.83887 10.4909 5.04591 10.4684 5.29773 10.4627C5.82373 10.4514 6.34974 10.3045 6.79741 10.0447L7.09958 9.86387L6.75264 9.74524C6.26021 9.57576 5.81814 9.18595 5.70622 8.81874C5.67265 8.70011 5.68384 8.69446 5.9972 8.69446L6.32176 8.68881L6.04757 8.55887C5.72301 8.39504 5.42643 8.11822 5.28094 7.83576C5.17462 7.63238 5.04032 7.11829 5.07949 7.07874C5.09068 7.0618 5.20819 7.09569 5.34249 7.14089C5.7286 7.28212 5.77897 7.24822 5.55513 7.01095C5.13545 6.5816 5.00674 5.94322 5.20819 5.33874L5.30332 5.06758L5.67265 5.43478C6.42808 6.17485 7.31782 6.6155 8.33626 6.74543L8.61606 6.77933Z" fill="#404659"/>
</svg>
