<svg width="16" height="16" viewBox="0 0 16 16" fill="none" xmlns="http://www.w3.org/2000/svg">
<path fill-rule="evenodd" clip-rule="evenodd" d="M8 0C3.58172 0 0 3.58172 0 8C0 12.4183 3.58172 16 8 16C12.4183 16 16 12.4183 16 8C16 3.58172 12.4183 0 8 0ZM7.77719 6.77933L7.7604 6.50251C7.71004 5.78504 8.15211 5.12972 8.85159 4.8755C9.109 4.78511 9.54547 4.77381 9.83086 4.8529C9.94278 4.8868 10.1554 4.99978 10.3065 5.10147L10.5807 5.2879L10.8829 5.19186C11.0508 5.14102 11.2746 5.05628 11.3753 4.99978C11.4704 4.94894 11.5544 4.92069 11.5544 4.93764C11.5544 5.03368 11.3473 5.36134 11.1739 5.54212C10.9388 5.79634 11.006 5.81894 11.4816 5.64946C11.767 5.55342 11.7726 5.55342 11.7167 5.66076C11.6831 5.71725 11.5096 5.91498 11.3249 6.09576C11.0116 6.40647 10.9948 6.44037 10.9948 6.70024C10.9948 7.10134 10.8045 7.93744 10.6143 8.39504C10.2617 9.25374 9.5063 10.1407 8.75086 10.587C7.68766 11.2141 6.27191 11.3722 5.08 11.005C4.68269 10.8808 4 10.5644 4 10.5079C4 10.4909 4.20705 10.4684 4.45886 10.4627C4.98487 10.4514 5.51088 10.3045 5.95854 10.0447L6.26072 9.86387L5.91378 9.74524C5.42134 9.57576 4.97927 9.18595 4.86735 8.81874C4.83378 8.70011 4.84497 8.69446 5.15834 8.69446L5.4829 8.68881L5.2087 8.55887C4.88414 8.39504 4.58756 8.11822 4.44207 7.83576C4.33575 7.63238 4.20145 7.11829 4.24062 7.07874C4.25181 7.0618 4.36933 7.09569 4.50362 7.14089C4.88974 7.28212 4.9401 7.24822 4.71627 7.01095C4.29658 6.5816 4.16787 5.94322 4.36933 5.33874L4.46445 5.06758L4.83378 5.43478C5.58922 6.17485 6.47895 6.6155 7.4974 6.74543L7.77719 6.77933Z" fill="#404659"/>
</svg>
