<svg width="16" height="16" viewBox="0 0 16 16" fill="none" xmlns="http://www.w3.org/2000/svg">
<path fill-rule="evenodd" clip-rule="evenodd" d="M8 0C3.58172 0 0 3.58172 0 8C0 12.4183 3.58172 16 8 16C12.4183 16 16 12.4183 16 8C16 3.58172 12.4183 0 8 0ZM11.3339 5.24978C11.701 5.35054 11.9902 5.64741 12.0883 6.02441C12.2667 6.70769 12.2667 8.13334 12.2667 8.13334C12.2667 8.13334 12.2667 9.55894 12.0883 10.2423C11.9902 10.6193 11.701 10.9161 11.3339 11.0169C10.6684 11.2 7.99998 11.2 7.99998 11.2C7.99998 11.2 5.33152 11.2 4.66607 11.0169C4.29889 10.9161 4.00973 10.6193 3.9116 10.2423C3.73332 9.55894 3.73332 8.13334 3.73332 8.13334C3.73332 8.13334 3.73332 6.70769 3.9116 6.02441C4.00973 5.64741 4.29889 5.35054 4.66607 5.24978C5.33152 5.06667 7.99998 5.06667 7.99998 5.06667C7.99998 5.06667 10.6684 5.06667 11.3339 5.24978Z" fill="#404659"/>
<path d="M7.2002 9.59977V6.93311L9.33353 8.26649L7.2002 9.59977Z" fill="#404659"/>
</svg>
