<svg width="213" height="40" viewBox="0 0 213 40" fill="none" xmlns="http://www.w3.org/2000/svg">
<g clip-path="url(#clip0)">
<path d="M95.4679 13.203H96.7189V30.141H95.4679V13.203ZM112.785 15.57H108.609V27H106.872V15.57H102.687V14.103H112.785V15.57ZM122.655 25.578L122.646 27H114.699V14.103H122.646V15.525H116.445V19.809H121.467V21.177H116.445V25.578H122.655ZM133.86 24.336C133.956 24.336 134.04 24.375 134.112 24.453L134.805 25.2C134.277 25.812 133.635 26.289 132.879 26.631C132.129 26.973 131.22 27.144 130.152 27.144C129.228 27.144 128.388 26.985 127.632 26.667C126.876 26.343 126.231 25.893 125.697 25.317C125.163 24.735 124.749 24.039 124.455 23.229C124.161 22.419 124.014 21.528 124.014 20.556C124.014 19.584 124.167 18.693 124.473 17.883C124.779 17.073 125.208 16.377 125.76 15.795C126.318 15.213 126.984 14.763 127.758 14.445C128.532 14.121 129.387 13.959 130.323 13.959C131.241 13.959 132.051 14.106 132.753 14.4C133.455 14.694 134.073 15.093 134.607 15.597L134.031 16.398C133.995 16.458 133.947 16.509 133.887 16.551C133.833 16.587 133.758 16.605 133.662 16.605C133.554 16.605 133.422 16.548 133.266 16.434C133.11 16.314 132.906 16.182 132.654 16.038C132.402 15.894 132.087 15.765 131.709 15.651C131.331 15.531 130.866 15.471 130.314 15.471C129.648 15.471 129.039 15.588 128.487 15.822C127.935 16.05 127.458 16.383 127.056 16.821C126.66 17.259 126.351 17.793 126.129 18.423C125.907 19.053 125.796 19.764 125.796 20.556C125.796 21.36 125.91 22.077 126.138 22.707C126.372 23.337 126.687 23.871 127.083 24.309C127.485 24.741 127.956 25.071 128.496 25.299C129.042 25.527 129.63 25.641 130.26 25.641C130.644 25.641 130.989 25.62 131.295 25.578C131.607 25.53 131.892 25.458 132.15 25.362C132.414 25.266 132.657 25.146 132.879 25.002C133.107 24.852 133.332 24.675 133.554 24.471C133.656 24.381 133.758 24.336 133.86 24.336ZM147.279 14.103V27H145.533V21.132H138.576V27H136.83V14.103H138.576V19.854H145.533V14.103H147.279ZM158.547 20.556C159.111 20.556 159.615 20.49 160.059 20.358C160.509 20.22 160.887 20.025 161.193 19.773C161.505 19.521 161.742 19.218 161.904 18.864C162.066 18.51 162.147 18.111 162.147 17.667C162.147 16.761 161.85 16.089 161.256 15.651C160.668 15.213 159.807 14.994 158.673 14.994H156.342V20.556H158.547ZM164.199 27H163.407C163.305 27 163.218 26.985 163.146 26.955C163.08 26.919 163.017 26.856 162.957 26.766L158.871 21.6C158.823 21.534 158.772 21.477 158.718 21.429C158.67 21.381 158.613 21.345 158.547 21.321C158.487 21.291 158.412 21.27 158.322 21.258C158.238 21.246 158.133 21.24 158.007 21.24H156.342V27H155.415V14.265H158.673C160.137 14.265 161.232 14.55 161.958 15.12C162.69 15.684 163.056 16.515 163.056 17.613C163.056 18.099 162.972 18.543 162.804 18.945C162.636 19.347 162.393 19.701 162.075 20.007C161.763 20.307 161.382 20.553 160.932 20.745C160.488 20.937 159.987 21.066 159.429 21.132C159.573 21.222 159.702 21.342 159.816 21.492L164.199 27ZM173.216 22.374L170.624 15.939C170.534 15.729 170.447 15.477 170.363 15.183C170.327 15.327 170.288 15.465 170.246 15.597C170.204 15.723 170.159 15.84 170.111 15.948L167.519 22.374H173.216ZM176.033 27H175.322C175.238 27 175.169 26.979 175.115 26.937C175.061 26.889 175.019 26.829 174.989 26.757L173.495 23.058H167.24L165.746 26.757C165.722 26.823 165.68 26.88 165.62 26.928C165.56 26.976 165.488 27 165.404 27H164.702L169.913 14.265H170.822L176.033 27ZM188.872 20.628C188.872 21.612 188.725 22.497 188.431 23.283C188.137 24.069 187.723 24.738 187.189 25.29C186.655 25.842 186.013 26.265 185.263 26.559C184.519 26.853 183.697 27 182.797 27H178.144V14.265H182.797C183.697 14.265 184.519 14.412 185.263 14.706C186.013 15 186.655 15.423 187.189 15.975C187.723 16.527 188.137 17.196 188.431 17.982C188.725 18.768 188.872 19.65 188.872 20.628ZM187.918 20.628C187.918 19.74 187.795 18.948 187.549 18.252C187.303 17.556 186.955 16.968 186.505 16.488C186.055 16.008 185.515 15.642 184.885 15.39C184.255 15.138 183.559 15.012 182.797 15.012H179.071V26.253H182.797C183.559 26.253 184.255 26.127 184.885 25.875C185.515 25.623 186.055 25.257 186.505 24.777C186.955 24.297 187.303 23.709 187.549 23.013C187.795 22.317 187.918 21.522 187.918 20.628ZM198.405 22.374L195.813 15.939C195.723 15.729 195.636 15.477 195.552 15.183C195.516 15.327 195.477 15.465 195.435 15.597C195.393 15.723 195.348 15.84 195.3 15.948L192.708 22.374H198.405ZM201.222 27H200.511C200.427 27 200.358 26.979 200.304 26.937C200.25 26.889 200.208 26.829 200.178 26.757L198.684 23.058H192.429L190.935 26.757C190.911 26.823 190.869 26.88 190.809 26.928C190.749 26.976 190.677 27 190.593 27H189.891L195.102 14.265H196.011L201.222 27ZM206.465 20.556C207.029 20.556 207.533 20.49 207.977 20.358C208.427 20.22 208.805 20.025 209.111 19.773C209.423 19.521 209.66 19.218 209.822 18.864C209.984 18.51 210.065 18.111 210.065 17.667C210.065 16.761 209.768 16.089 209.174 15.651C208.586 15.213 207.725 14.994 206.591 14.994H204.26V20.556H206.465ZM212.117 27H211.325C211.223 27 211.136 26.985 211.064 26.955C210.998 26.919 210.935 26.856 210.875 26.766L206.789 21.6C206.741 21.534 206.69 21.477 206.636 21.429C206.588 21.381 206.531 21.345 206.465 21.321C206.405 21.291 206.33 21.27 206.24 21.258C206.156 21.246 206.051 21.24 205.925 21.24H204.26V27H203.333V14.265H206.591C208.055 14.265 209.15 14.55 209.876 15.12C210.608 15.684 210.974 16.515 210.974 17.613C210.974 18.099 210.89 18.543 210.722 18.945C210.554 19.347 210.311 19.701 209.993 20.007C209.681 20.307 209.3 20.553 208.85 20.745C208.406 20.937 207.905 21.066 207.347 21.132C207.491 21.222 207.62 21.342 207.734 21.492L212.117 27Z" fill="#0C3455"/>
<g clip-path="url(#clip1)">
<path fill-rule="evenodd" clip-rule="evenodd" d="M23.6188 1.33094L33.3266 6.91856C36.0221 8.4718 37.684 11.3362 37.684 14.4225V25.5776C37.684 28.684 36.0221 31.5485 33.3266 33.0815L23.6188 38.6691C20.9233 40.2224 17.5996 40.2224 14.9041 38.6691L5.19624 33.0815C2.50075 31.5485 0.838867 28.684 0.838867 25.5776V14.4225C0.838867 11.316 2.50075 8.45162 5.19624 6.91856L14.9041 1.33094C17.5996 -0.222294 20.9233 -0.222294 23.6188 1.33094ZM19.2817 6.8177C12.0059 6.8177 6.10825 12.6877 6.10825 19.9294C6.10825 24.3471 8.31734 28.3815 11.9248 30.8021C12.472 31.1652 13.2219 31.024 13.5867 30.4793C13.9515 29.9347 13.8097 29.1883 13.2624 28.8253L13.1814 28.7647C10.2832 26.7879 8.52 23.4999 8.52 19.9294C8.52 14.1199 13.1611 9.37953 18.9574 9.21816L14.0934 14.0392C13.7894 14.3418 13.6272 14.7654 13.6475 15.1689C13.6475 15.189 13.6475 15.2294 13.6475 15.2496C13.6475 15.9959 14.2555 16.6011 15.0054 16.6011H20.4774L13.7286 23.3385C13.5867 23.4797 13.4854 23.6209 13.4246 23.7823C13.2827 23.984 13.2016 24.2462 13.2016 24.5085C13.2016 25.2145 13.7286 25.7793 14.4177 25.86C14.6609 25.9205 14.9041 25.9205 15.127 25.86H19.8694L15.5323 30.1768C14.9446 30.7618 14.9446 31.7098 15.5323 32.2948C15.7958 32.5571 16.1201 32.6983 16.4443 32.7184C16.4849 32.7386 16.5051 32.7386 16.5457 32.7386C17.4374 32.9201 18.3494 33.021 19.2614 33.021C26.5372 33.021 32.4349 27.151 32.4349 19.9093C32.4349 15.4513 30.1853 11.3967 26.5372 8.9761C25.99 8.613 25.2402 8.7542 24.8754 9.31902C24.5105 9.86366 24.6524 10.61 25.2199 10.9731L25.301 11.0336C28.2396 13.0105 30.0434 16.3187 30.0434 19.9093C30.0434 25.7793 25.3212 30.5399 19.4438 30.6206H19.3222L24.2471 25.7188C24.6321 25.3355 24.774 24.7707 24.6524 24.2866C24.5511 23.6411 23.9836 23.1368 23.3148 23.1368H18.167L24.8348 16.5002C25.4226 15.9152 25.4226 14.9672 24.8348 14.3822C24.774 14.3216 24.693 14.2611 24.6322 14.2006C24.3889 13.9989 24.1052 13.898 23.7607 13.898H18.4913L22.8081 9.60142C23.3959 9.01644 23.3959 8.06836 22.8081 7.48337C22.5244 7.20097 22.1596 7.05976 21.7745 7.03959C20.9639 6.89839 20.1329 6.8177 19.2817 6.8177Z" fill="url(#paint0_linear)"/>
<path d="M47.2902 21.2205C46.7633 21.2205 46.2769 21.1196 45.8513 20.9381C45.4257 20.7565 45.0812 20.454 44.8177 20.0505C44.5542 19.6471 44.4326 19.1024 44.4326 18.4166V15.0681C44.4326 14.3822 44.5542 13.8577 44.8177 13.4341C45.0812 13.0307 45.4054 12.7281 45.8513 12.5466C46.2769 12.365 46.7633 12.2642 47.2902 12.2642C47.8172 12.2642 48.3036 12.365 48.7495 12.5466C49.1751 12.7281 49.5196 13.0307 49.7831 13.4341C50.0263 13.8376 50.1681 14.3822 50.1681 15.0681V18.4166C50.1681 19.1024 50.0465 19.6471 49.7831 20.0505C49.5399 20.454 49.1953 20.7565 48.7495 20.9381C48.3036 21.1196 47.8374 21.2205 47.2902 21.2205ZM47.2902 19.8286C47.6956 19.8286 47.9996 19.7076 48.2225 19.4857C48.4455 19.2638 48.5671 18.9007 48.5671 18.4166V15.0681C48.5671 14.5839 48.4455 14.2208 48.2225 13.9989C47.9996 13.7771 47.6753 13.656 47.2902 13.656C46.8849 13.656 46.5809 13.7771 46.358 13.9989C46.135 14.2208 46.0337 14.5839 46.0337 15.0681V18.4166C46.0337 18.9007 46.135 19.2638 46.358 19.4857C46.5809 19.7278 46.9052 19.8286 47.2902 19.8286Z" fill="#0C3455"/>
<path d="M52.3168 21.14C52.1141 21.14 51.9317 21.0996 51.7696 21.019C51.6074 20.9383 51.5264 20.8172 51.5264 20.6357V12.7888C51.5264 12.6476 51.5872 12.5266 51.6885 12.4459C51.8101 12.345 51.952 12.3047 52.1344 12.3047H54.5664C55.0933 12.3047 55.5595 12.3854 55.9648 12.5669C56.3904 12.7485 56.7147 13.0309 56.9579 13.4343C57.2011 13.8378 57.3227 14.3622 57.3227 15.0279V15.0884C57.3227 15.7541 57.2011 16.2786 56.9376 16.682C56.6944 17.0854 56.3499 17.388 55.904 17.5494C55.4784 17.7309 54.992 17.8318 54.4448 17.8318H53.0869V20.6357C53.0869 20.7971 53.0058 20.9383 52.8437 21.019C52.6816 21.0996 52.5194 21.14 52.3168 21.14ZM53.0869 16.6013H54.4448C54.8501 16.6013 55.1541 16.4803 55.3771 16.2584C55.6 16.0365 55.7216 15.6734 55.7216 15.2094V15.0682C55.7216 14.5841 55.6 14.2412 55.3771 14.0193C55.1541 13.7974 54.8299 13.6764 54.4448 13.6764H53.0869V16.6013Z" fill="#0C3455"/>
<path d="M58.984 21.14C58.8219 21.14 58.6597 21.0996 58.5179 21.0189C58.376 20.9383 58.2949 20.8172 58.2949 20.6357V12.809C58.2949 12.6476 58.376 12.5064 58.5179 12.4257C58.6597 12.345 58.8219 12.3047 58.984 12.3047H63.3211C63.5035 12.3047 63.6251 12.3854 63.7062 12.5266C63.7872 12.6678 63.8278 12.8292 63.8278 12.9905C63.8278 13.1923 63.7872 13.3536 63.7062 13.4948C63.6251 13.636 63.5035 13.6965 63.3414 13.6965H59.896V16.1172H61.7403C61.9024 16.1172 62.024 16.1777 62.1051 16.2987C62.1862 16.4198 62.2267 16.561 62.2267 16.7425C62.2267 16.8837 62.1862 17.0249 62.1051 17.1459C62.024 17.2871 61.9024 17.3477 61.72 17.3477H59.8757V19.7885H63.3211C63.4832 19.7885 63.6048 19.849 63.6859 19.9902C63.767 20.1314 63.8075 20.2928 63.8075 20.4945C63.8075 20.6559 63.767 20.8172 63.6859 20.9584C63.6048 21.0996 63.4832 21.1803 63.3008 21.1803H58.984V21.14Z" fill="#0C3455"/>
<path d="M65.5306 21.1396C65.328 21.1396 65.1658 21.0993 64.9834 21.0186C64.801 20.9379 64.7402 20.8169 64.7402 20.6353V12.7885C64.7402 12.6271 64.8213 12.4859 64.9834 12.4052C65.1456 12.3245 65.328 12.2842 65.5306 12.2842C65.7333 12.2842 65.8954 12.3044 66.017 12.3447C66.1386 12.385 66.2602 12.4657 66.3616 12.5868C66.4629 12.7078 66.5845 12.8893 66.7061 13.1314L69.0571 17.6499V12.7885C69.0571 12.6069 69.1381 12.4859 69.3003 12.4052C69.4624 12.3245 69.6448 12.2842 69.8475 12.2842C70.0501 12.2842 70.2325 12.3245 70.3947 12.4052C70.5568 12.4859 70.6379 12.6069 70.6379 12.7885V20.6353C70.6379 20.7967 70.5568 20.9379 70.3947 21.0186C70.2325 21.0993 70.0501 21.1396 69.8475 21.1396C69.6651 21.1396 69.4827 21.0993 69.3205 21.0388C69.1584 20.9581 69.0368 20.8371 68.9355 20.6555L66.3008 15.7941V20.6555C66.3008 20.8169 66.2197 20.9581 66.0576 21.0388C65.9157 21.0993 65.7333 21.1396 65.5306 21.1396Z" fill="#0C3455"/>
<path d="M46.7028 32.7184C46.1758 32.7184 45.7502 32.6377 45.3854 32.4965C45.0206 32.3351 44.7572 32.1738 44.5748 31.9519C44.3924 31.7502 44.291 31.5888 44.291 31.4678C44.291 31.4274 44.3113 31.3669 44.3316 31.3064C44.3721 31.2459 44.3924 31.2055 44.4329 31.1652C44.4734 31.1248 44.514 31.1248 44.5545 31.1248C44.6356 31.1248 44.6964 31.1652 44.7774 31.2862C44.8585 31.3871 44.9598 31.5081 45.1017 31.6493C45.2436 31.7905 45.426 31.9115 45.6692 32.0124C45.9124 32.1133 46.2366 32.1738 46.6217 32.1738C47.027 32.1738 47.3918 32.1133 47.6756 31.9721C47.9593 31.8308 48.1823 31.6291 48.3241 31.3669C48.466 31.1047 48.5471 30.7617 48.5471 30.3785C48.5471 29.9549 48.466 29.6119 48.3241 29.3699C48.1823 29.1076 47.9796 28.9059 47.7364 28.7445C47.4932 28.5832 47.2297 28.4621 46.946 28.3613C46.6622 28.2604 46.3785 28.1596 46.0745 28.0587C45.7908 27.9578 45.5273 27.8166 45.2841 27.6553C45.0409 27.4939 44.8382 27.2922 44.6964 27.0299C44.5545 26.7677 44.4734 26.4248 44.4734 25.981C44.4734 25.5372 44.5545 25.1943 44.7166 24.9119C44.8788 24.6295 45.0814 24.4076 45.3246 24.2664C45.5678 24.105 45.8516 24.0041 46.1353 23.9436C46.419 23.8831 46.7028 23.8428 46.9662 23.8428C47.2094 23.8428 47.4526 23.8629 47.6756 23.9033C47.8985 23.9436 48.1215 24.0041 48.3241 24.0647C48.5268 24.1252 48.6687 24.2059 48.7903 24.2664C48.9119 24.3471 48.9524 24.4278 48.9524 24.5286C48.9524 24.569 48.9321 24.6295 48.9119 24.69C48.8916 24.7505 48.8511 24.7909 48.8105 24.8312C48.77 24.8715 48.7295 24.8917 48.6687 24.8917C48.6079 24.8917 48.5065 24.8514 48.3849 24.7707C48.2633 24.69 48.0809 24.6093 47.858 24.5488C47.635 24.4681 47.331 24.4278 46.9662 24.4278C46.6825 24.4278 46.3785 24.4681 46.0948 24.569C45.811 24.6496 45.5678 24.811 45.3854 25.0329C45.203 25.2548 45.1017 25.5574 45.1017 25.9608C45.1017 26.3037 45.1828 26.5862 45.3246 26.7879C45.4665 26.9896 45.6692 27.1711 45.9124 27.2922C46.1556 27.4132 46.419 27.5342 46.7028 27.6149C46.9865 27.7158 47.2702 27.8166 47.5742 27.9377C47.858 28.0587 48.1417 28.2201 48.3647 28.4016C48.6079 28.5832 48.7903 28.8252 48.9524 29.148C49.0943 29.4506 49.1753 29.854 49.1753 30.3381C49.1753 30.9029 49.074 31.3871 48.8511 31.7502C48.6281 32.1133 48.3444 32.3755 47.9796 32.557C47.6148 32.6176 47.1892 32.7184 46.7028 32.7184Z" fill="#0C3455"/>
<path d="M53.0666 32.7184C52.6004 32.7184 52.1951 32.6377 51.81 32.4562C51.4452 32.2948 51.1412 32.0124 50.9385 31.6493C50.7156 31.2862 50.6143 30.8021 50.6143 30.1767V26.3239C50.6143 25.7187 50.7156 25.2144 50.9385 24.8513C51.1615 24.4882 51.4452 24.226 51.81 24.0445C52.1748 23.8831 52.5801 23.7822 53.0463 23.7822C53.5124 23.7822 53.9178 23.8629 54.3028 24.0445C54.6676 24.2058 54.9716 24.4882 55.1946 24.8513C55.4175 25.2144 55.5188 25.7187 55.5188 26.3239V30.1767C55.5188 30.7819 55.4175 31.2862 55.1946 31.6493C54.9716 32.0124 54.6879 32.2746 54.3028 32.4562C53.9178 32.6175 53.5124 32.7184 53.0666 32.7184ZM53.0463 32.1334C53.6138 32.1334 54.0799 31.972 54.4042 31.6493C54.7284 31.3265 54.8906 30.8424 54.8906 30.1767V26.3239C54.8906 25.6582 54.7284 25.1741 54.4042 24.8513C54.0799 24.5286 53.634 24.3672 53.0463 24.3672C52.4585 24.3672 52.0127 24.5286 51.6884 24.8513C51.3641 25.1741 51.202 25.6582 51.202 26.3239V30.1767C51.202 30.8424 51.3641 31.3265 51.6884 31.6493C52.0127 31.972 52.4788 32.1334 53.0463 32.1334Z" fill="#0C3455"/>
<path d="M59.7753 32.7184C59.3091 32.7184 58.9038 32.6377 58.5187 32.4562C58.1539 32.2948 57.8499 32.0124 57.627 31.6493C57.4041 31.2862 57.3027 30.8021 57.3027 30.1767V24.0243C57.3027 23.9436 57.323 23.8629 57.4041 23.8427C57.4649 23.8024 57.5257 23.7822 57.6067 23.7822C57.6878 23.7822 57.7486 23.8024 57.8094 23.8427C57.8702 23.8831 57.9107 23.9436 57.9107 24.0243V30.1767C57.9107 30.8424 58.0729 31.3265 58.3971 31.6493C58.7214 31.972 59.1673 32.1334 59.755 32.1334C60.3225 32.1334 60.7886 31.972 61.1129 31.6493C61.4372 31.3265 61.5993 30.8424 61.5993 30.1767V24.0243C61.5993 23.9436 61.6398 23.8629 61.7006 23.8427C61.7614 23.8024 61.8222 23.7822 61.9033 23.7822C61.9844 23.7822 62.0452 23.8024 62.106 23.8427C62.1668 23.8831 62.2073 23.9436 62.2073 24.0243V30.1767C62.2073 30.7819 62.106 31.2862 61.883 31.6493C61.6601 32.0124 61.3764 32.2746 60.9913 32.4562C60.6468 32.6175 60.2212 32.7184 59.7753 32.7184Z" fill="#0C3455"/>
<path d="M68.7122 32.6577C68.6311 32.6577 68.55 32.6174 68.4892 32.4963C68.4284 32.3955 68.3676 32.3148 68.3271 32.2341L66.422 28.5225H64.7398V32.3955C64.7398 32.4762 64.6993 32.5367 64.6385 32.577C64.5777 32.6174 64.4966 32.6375 64.4358 32.6375C64.3548 32.6375 64.2737 32.6174 64.2129 32.577C64.1521 32.5367 64.1318 32.4762 64.1318 32.3955V24.0443C64.1318 23.9838 64.1521 23.9233 64.1926 23.8829C64.2332 23.8426 64.294 23.8224 64.375 23.8022H66.4625C66.9084 23.8022 67.334 23.8829 67.7191 24.0241C68.1041 24.1653 68.4284 24.4074 68.6514 24.7503C68.8743 25.0933 68.9959 25.5572 68.9959 26.1624C68.9959 26.6667 68.9148 27.0903 68.7324 27.413C68.55 27.7358 68.3271 27.9778 68.0231 28.1392C67.7191 28.3006 67.3948 28.4216 67.0097 28.4821L68.9554 32.2341C68.9756 32.2543 68.9756 32.2745 68.9756 32.3148C68.9756 32.335 68.9756 32.3551 68.9756 32.3753C68.9756 32.4358 68.9554 32.4762 68.9351 32.5367C68.8946 32.577 68.854 32.6174 68.8135 32.6577C68.8135 32.6376 68.773 32.6577 68.7122 32.6577ZM64.7398 27.9577H66.4828C67.0503 27.9577 67.5164 27.8165 67.8812 27.5341C68.246 27.2516 68.4284 26.7877 68.4284 26.1422C68.4284 25.4967 68.246 25.0529 67.8812 24.7705C67.5164 24.4881 67.0503 24.3671 66.4828 24.3671H64.7398V27.9577Z" fill="#0C3455"/>
<path d="M72.7863 32.7184C72.3404 32.7184 71.9351 32.6377 71.55 32.4562C71.1852 32.2948 70.8812 32.0124 70.6583 31.6493C70.4353 31.2862 70.334 30.8021 70.334 30.1767V26.3239C70.334 25.7187 70.4556 25.2144 70.6785 24.8513C70.9015 24.4882 71.2055 24.226 71.5703 24.0445C71.9351 23.8831 72.3607 23.7822 72.8065 23.7822C73.3335 23.7822 73.7793 23.8831 74.1239 24.0646C74.4887 24.2462 74.7521 24.4882 74.9346 24.7908C75.117 25.0934 75.2183 25.4162 75.2183 25.7389C75.2183 25.9003 75.198 26.0011 75.1372 26.0617C75.0967 26.1222 75.0156 26.1423 74.9143 26.1423C74.7927 26.1423 74.7116 26.1222 74.6711 26.0617C74.6305 26.0011 74.6103 25.9406 74.6103 25.9003C74.6103 25.7591 74.5697 25.6179 74.5292 25.4363C74.4887 25.2548 74.3873 25.0934 74.2657 24.932C74.1441 24.7707 73.9617 24.6294 73.7185 24.5286C73.4753 24.4277 73.1713 24.3672 72.7863 24.3672C72.1783 24.3672 71.7121 24.5286 71.3879 24.8513C71.0636 25.1741 70.9015 25.6582 70.9015 26.3239V30.1767C70.9015 30.8424 71.0636 31.3467 71.3879 31.6493C71.7121 31.972 72.1985 32.1132 72.8268 32.1132C73.2119 32.1132 73.5159 32.0729 73.7388 31.9519C73.9617 31.851 74.1441 31.73 74.2455 31.5686C74.3671 31.4072 74.4481 31.2458 74.4887 31.0643C74.5292 30.8827 74.5697 30.7214 74.59 30.5802C74.59 30.4995 74.6305 30.439 74.6711 30.3986C74.7116 30.3583 74.7927 30.3179 74.894 30.3179C74.9953 30.3179 75.0764 30.3381 75.117 30.3986C75.1575 30.4591 75.198 30.56 75.198 30.7214C75.198 31.0441 75.0967 31.3669 74.9143 31.6694C74.7319 31.972 74.4481 32.2141 74.0833 32.3956C73.7591 32.6175 73.3132 32.7184 72.7863 32.7184Z" fill="#0C3455"/>
<path d="M77.0015 32.6379C76.9204 32.6379 76.8596 32.6177 76.7988 32.5774C76.738 32.537 76.7178 32.4765 76.7178 32.3958V24.0648C76.7178 23.9841 76.738 23.9236 76.7988 23.8833C76.8596 23.8429 76.9204 23.8228 77.0015 23.8228H81.3386C81.4197 23.8228 81.5008 23.8631 81.5413 23.9236C81.5818 23.9841 81.6021 24.0446 81.6021 24.1052C81.6021 24.1858 81.5818 24.2464 81.5413 24.3069C81.5008 24.3674 81.44 24.4077 81.3589 24.4077H77.3663V27.958H79.2917C79.3727 27.958 79.4335 27.9782 79.4741 28.0387C79.5146 28.0992 79.5349 28.1597 79.5349 28.2404C79.5349 28.3009 79.5146 28.3614 79.4741 28.4219C79.4335 28.4825 79.3727 28.5026 79.2714 28.5026H77.346V32.0731H81.3386C81.4197 32.0731 81.4805 32.0932 81.521 32.1739C81.5616 32.2344 81.5818 32.3151 81.5818 32.3756C81.5818 32.4362 81.5616 32.4967 81.521 32.5572C81.4805 32.6177 81.4197 32.658 81.3184 32.658H77.0015V32.6379Z" fill="#0C3455"/>
</g>
</g>
<defs>
<linearGradient id="paint0_linear" x1="7.50865" y1="31.2866" x2="33.2228" y2="9.98749" gradientUnits="userSpaceOnUse">
<stop stop-color="#EF4123"/>
<stop offset="1" stop-color="#F7941E"/>
</linearGradient>
<clipPath id="clip0">
<rect width="212" height="40" fill="white" transform="translate(0.838867)"/>
</clipPath>
<clipPath id="clip1">
<rect width="84.5455" height="40" fill="white" transform="translate(0.838867)"/>
</clipPath>
</defs>
</svg>
