<svg width="15" height="15" viewBox="0 0 15 15" fill="none" xmlns="http://www.w3.org/2000/svg">
<path fill-rule="evenodd" clip-rule="evenodd" d="M0.105591 1.5C0.105591 0.671572 0.777164 0 1.60559 0H12.6345C13.4629 0 14.1345 0.671573 14.1345 1.5V9.54778V10.2443C14.1345 11.0727 13.4629 11.7443 12.6345 11.7443H8.52821C8.61068 12.1899 8.77394 12.6177 9.0107 13.0062H9.66918C9.94532 13.0062 10.1692 13.2301 10.1692 13.5062C10.1692 13.7824 9.94532 14.0062 9.66918 14.0062H8.75045C8.74463 14.0063 8.73881 14.0063 8.73299 14.0062H5.50712C5.5013 14.0063 5.49548 14.0063 5.48966 14.0062H4.57091C4.29477 14.0062 4.07091 13.7824 4.07091 13.5062C4.07091 13.2301 4.29477 13.0062 4.57091 13.0062H5.22941C5.46617 12.6177 5.62943 12.1899 5.7119 11.7443H1.60559C0.777163 11.7443 0.105591 11.0727 0.105591 10.2443V9.54778V1.5ZM13.1345 1.5V9.04778H1.10559V1.5C1.10559 1.22386 1.32945 1 1.60559 1H12.6345C12.9106 1 13.1345 1.22386 13.1345 1.5ZM13.1345 10.0478H1.10559V10.2443C1.10559 10.5204 1.32945 10.7443 1.60559 10.7443H6.26886H6.27112H7.96899H7.97125H12.6345C12.9106 10.7443 13.1345 10.5204 13.1345 10.2443V10.0478ZM6.35764 13.0062C6.53805 12.6053 6.66197 12.1806 6.72522 11.7443H7.51489C7.57815 12.1806 7.70206 12.6053 7.88247 13.0062H6.35764ZM5.4257 4.02884C5.57883 3.8696 5.57388 3.61639 5.41465 3.46326C5.25542 3.31013 5.0022 3.31508 4.84907 3.47431L3.43289 4.94694C3.28397 5.10179 3.28397 5.34661 3.43289 5.50146L4.84907 6.97409C5.0022 7.13332 5.25542 7.13827 5.41465 6.98514C5.57388 6.83201 5.57883 6.5788 5.4257 6.41956L4.27615 5.2242L5.4257 4.02884ZM9.10867 6.98514C8.94944 6.83201 8.9445 6.57879 9.09762 6.41956L10.2472 5.2242L9.09762 4.02883C8.9445 3.8696 8.94944 3.61639 9.10867 3.46326C9.26791 3.31013 9.52112 3.31508 9.67425 3.47431L11.0904 4.94694C11.2394 5.10179 11.2394 5.34661 11.0904 5.50146L9.67425 6.97409C9.52112 7.13332 9.26791 7.13827 9.10867 6.98514ZM8.67194 3.87562C8.77073 3.67803 8.69065 3.43776 8.49305 3.33896C8.29546 3.24017 8.05519 3.32026 7.9564 3.51785L6.4564 6.51785C6.3576 6.71544 6.43769 6.95571 6.63528 7.05451C6.83287 7.1533 7.07314 7.07321 7.17194 6.87562L8.67194 3.87562Z" fill="#113B65"/>
</svg>
