<svg width="16" height="16" viewBox="0 0 16 16" fill="none" xmlns="http://www.w3.org/2000/svg">
<path d="M8.01449 0.0600586C3.60497 0.0600586 0.0292969 3.69603 0.0292969 8.18158C0.0292969 11.7699 2.3173 14.8143 5.49006 15.8882C5.88913 15.9634 6.03564 15.712 6.03564 15.4975C6.03564 15.3038 6.02824 14.664 6.0248 13.9854C3.80331 14.4767 3.33455 13.0272 3.33455 13.0272C2.97131 12.0884 2.44794 11.8388 2.44794 11.8388C1.72345 11.3347 2.50255 11.3451 2.50255 11.3451C3.3044 11.4022 3.72662 12.182 3.72662 12.182C4.43882 13.4236 5.59465 13.0647 6.05032 12.8572C6.12199 12.3324 6.32893 11.9738 6.5573 11.7711C4.78368 11.5658 2.91921 10.8694 2.91921 7.75739C2.91921 6.87069 3.23115 6.14619 3.74196 5.57742C3.65905 5.37273 3.38573 4.54682 3.81931 3.42812C3.81931 3.42812 4.48986 3.20984 6.01581 4.26062C6.65277 4.08067 7.33588 3.99043 8.01449 3.98733C8.6931 3.99043 9.37673 4.08067 10.0149 4.26062C11.539 3.20984 12.2086 3.42812 12.2086 3.42812C12.6432 4.54682 12.3698 5.37273 12.2869 5.57742C12.7989 6.14619 13.1087 6.87069 13.1087 7.75739C13.1087 10.8768 11.2407 11.5636 9.46255 11.7647C9.74897 12.0167 10.0042 12.511 10.0042 13.2687C10.0042 14.3553 9.99492 15.2299 9.99492 15.4975C9.99492 15.7136 10.1387 15.9669 10.5434 15.8871C13.7145 14.812 15.9995 11.7687 15.9995 8.18158C15.9995 3.69603 12.4244 0.0600586 8.01449 0.0600586Z" fill="#404659"/>
<path d="M3.0537 11.7207C3.03611 11.7612 2.9737 11.7732 2.91684 11.7454C2.85892 11.719 2.82639 11.6639 2.84517 11.6235C2.86236 11.5819 2.9249 11.5705 2.98269 11.598C3.04074 11.6247 3.0738 11.6802 3.0537 11.7207Z" fill="#404659"/>
<path d="M3.37693 12.0875C3.33885 12.1234 3.26441 12.1067 3.21389 12.05C3.16166 11.9934 3.15188 11.9176 3.19049 11.8812C3.22976 11.8453 3.30196 11.8621 3.35432 11.9187C3.40655 11.976 3.41674 12.0512 3.37693 12.0875Z" fill="#404659"/>
<path d="M3.69199 12.5556C3.64307 12.5902 3.56307 12.5578 3.51361 12.4856C3.46469 12.4133 3.46469 12.3267 3.51467 12.292C3.56426 12.2573 3.64307 12.2885 3.69318 12.3602C3.74198 12.4335 3.74198 12.5203 3.69199 12.5556Z" fill="#404659"/>
<path d="M4.12358 13.0073C4.07981 13.0564 3.98659 13.0432 3.91836 12.9762C3.84854 12.9107 3.8291 12.8178 3.873 12.7687C3.9173 12.7195 4.01105 12.7334 4.07981 12.7998C4.1491 12.8652 4.17026 12.9588 4.12358 13.0073Z" fill="#404659"/>
<path d="M4.7183 13.2697C4.69899 13.3333 4.60921 13.3622 4.51876 13.3352C4.42845 13.3073 4.36934 13.2328 4.38759 13.1685C4.40636 13.1045 4.49654 13.0744 4.58765 13.1033C4.67783 13.131 4.73707 13.205 4.7183 13.2697Z" fill="#404659"/>
<path d="M5.37195 13.3182C5.3742 13.3852 5.2975 13.4408 5.20256 13.4418C5.10709 13.4441 5.02987 13.3899 5.02881 13.324C5.02881 13.2564 5.10378 13.2014 5.19925 13.1998C5.2942 13.1979 5.37195 13.2517 5.37195 13.3182Z" fill="#404659"/>
<path d="M5.98011 13.213C5.99148 13.2783 5.92549 13.3455 5.83121 13.3632C5.73852 13.3806 5.6527 13.3402 5.64093 13.2754C5.62943 13.2084 5.6966 13.1413 5.78916 13.1239C5.88358 13.1073 5.96807 13.1465 5.98011 13.213Z" fill="#404659"/>
</svg>
