<svg width="32" height="32" viewBox="0 0 32 32" fill="none" xmlns="http://www.w3.org/2000/svg">
<path d="M22.6816 9.35978L26.8243 5.24512" stroke="#FF6D00" stroke-linecap="round" stroke-linejoin="round"/>
<path fill-rule="evenodd" clip-rule="evenodd" d="M28.6813 5.99984C30.1541 5.99984 31.348 4.80593 31.348 3.33317C31.348 1.86041 30.1541 0.666504 28.6813 0.666504C27.2086 0.666504 26.0146 1.86041 26.0146 3.33317C26.0146 4.80593 27.2086 5.99984 28.6813 5.99984Z" stroke="#FF6D00" stroke-linecap="round" stroke-linejoin="round"/>
<path d="M23.9648 23.9717L26.7835 26.809" stroke="#FF6D00" stroke-linecap="round" stroke-linejoin="round"/>
<path fill-rule="evenodd" clip-rule="evenodd" d="M28.695 31.3333C30.1677 31.3333 31.3617 30.1394 31.3617 28.6667C31.3617 27.1939 30.1677 26 28.695 26C27.2222 26 26.0283 27.1939 26.0283 28.6667C26.0283 30.1394 27.2222 31.3333 28.695 31.3333Z" stroke="#FF6D00" stroke-linecap="round" stroke-linejoin="round"/>
<path d="M9.3481 9.35978L5.2041 5.24512" stroke="#FF6D00" stroke-linecap="round" stroke-linejoin="round"/>
<path fill-rule="evenodd" clip-rule="evenodd" d="M3.34831 5.99984C4.82107 5.99984 6.01497 4.80593 6.01497 3.33317C6.01497 1.86041 4.82107 0.666504 3.34831 0.666504C1.87555 0.666504 0.681641 1.86041 0.681641 3.33317C0.681641 4.80593 1.87555 5.99984 3.34831 5.99984Z" stroke="#FF6D00" stroke-linecap="round" stroke-linejoin="round"/>
<path d="M8.06609 23.9717L5.24609 26.809" stroke="#FF6D00" stroke-linecap="round" stroke-linejoin="round"/>
<path fill-rule="evenodd" clip-rule="evenodd" d="M3.33366 31.3333C4.80642 31.3333 6.00033 30.1394 6.00033 28.6667C6.00033 27.1939 4.80642 26 3.33366 26C1.8609 26 0.666992 27.1939 0.666992 28.6667C0.666992 30.1394 1.8609 31.3333 3.33366 31.3333Z" stroke="#FF6D00" stroke-linecap="round" stroke-linejoin="round"/>
<path d="M18.6632 22.6668V20.7128H19.11C19.5177 20.762 19.926 20.6262 20.2258 20.3417C20.5256 20.0572 20.6864 19.653 20.6651 19.2372V17.4643H22.3867C22.4764 17.4643 22.5607 17.4207 22.6134 17.3472C22.6662 17.2736 22.681 17.1788 22.6533 17.0923C21.5963 13.7747 20.8316 10.0851 17.3436 9.43786C15.8048 9.13537 14.2113 9.49713 12.9465 10.4361C11.6816 11.3751 10.8599 12.8063 10.679 14.3854C10.5514 16.4258 11.4457 18.3942 13.058 19.6213V22.6668" stroke="#FF6D00" stroke-linecap="round" stroke-linejoin="round"/>
</svg>
