<svg width="17" height="16" viewBox="0 0 17 16" fill="none" xmlns="http://www.w3.org/2000/svg">
<path fill-rule="evenodd" clip-rule="evenodd" d="M8.83887 0C4.42059 0 0.838867 3.58172 0.838867 8C0.838867 12.4183 4.42059 16 8.83887 16C13.2571 16 16.8389 12.4183 16.8389 8C16.8389 3.58172 13.2571 0 8.83887 0ZM12.1727 5.24978C12.5399 5.35054 12.8291 5.64741 12.9272 6.02441C13.1055 6.70769 13.1055 8.13334 13.1055 8.13334C13.1055 8.13334 13.1055 9.55894 12.9272 10.2423C12.8291 10.6193 12.5399 10.9161 12.1727 11.0169C11.5073 11.2 8.83885 11.2 8.83885 11.2C8.83885 11.2 6.17039 11.2 5.50494 11.0169C5.13776 10.9161 4.8486 10.6193 4.75046 10.2423C4.57218 9.55894 4.57218 8.13334 4.57218 8.13334C4.57218 8.13334 4.57218 6.70769 4.75046 6.02441C4.8486 5.64741 5.13776 5.35054 5.50494 5.24978C6.17039 5.06667 8.83885 5.06667 8.83885 5.06667C8.83885 5.06667 11.5073 5.06667 12.1727 5.24978Z" fill="#404659"/>
<path d="M8.03906 9.60002V6.93335L10.1724 8.26673L8.03906 9.60002Z" fill="#404659"/>
</svg>
