<svg width="1437" height="631" viewBox="0 0 1437 631" fill="none" xmlns="http://www.w3.org/2000/svg">
<mask id="mask0" style="mask-type:alpha" maskUnits="userSpaceOnUse" x="0" y="0" width="1437" height="631">
<rect width="1437" height="631" fill="#C4C4C4"/>
</mask>
<g mask="url(#mask0)">
<path d="M677.924 -369.884C703.909 -87.7751 691.811 40.3898 716.907 359.513L1346.07 -17.2489C1132.64 -414.426 677.924 -369.884 677.924 -369.884Z" fill="url(#paint0_linear)" fill-opacity="0.1"/>
<path fill-rule="evenodd" clip-rule="evenodd" d="M35.8836 788.592C274.451 1165.17 773.122 1277.04 1149.7 1038.48C1520.17 803.778 1634.45 317.338 1410.91 -56.9282L1252.42 38.9306C1423.9 327.185 1335.72 701.37 1050.57 882.012C760.412 1065.83 376.171 979.63 192.347 689.467C8.52444 399.305 94.7296 15.0638 384.892 -168.759C675.055 -352.582 1059.3 -266.377 1243.12 23.7852C1245.76 27.9563 1248.35 32.1469 1250.88 36.356L1409.37 -59.5009C1406.17 -64.8022 1402.91 -70.0807 1399.58 -75.3355C1161.02 -451.911 662.345 -563.788 285.769 -325.221C-90.8057 -86.6544 -202.683 412.017 35.8836 788.592ZM1248.31 37.9085C1245.79 33.7172 1243.22 29.5443 1240.58 25.3907C1057.65 -263.372 675.26 -349.161 386.498 -166.225C97.7347 16.7113 11.9454 399.099 194.882 687.862C377.818 976.625 760.206 1062.41 1048.97 879.478C1332.73 699.711 1420.49 327.344 1249.85 40.4832L1080.85 142.697C1195.98 337.844 1136.05 590.519 943.278 712.646C746.655 837.21 486.281 778.795 361.717 582.172C237.153 385.549 295.568 125.175 492.191 0.610321C688.815 -123.954 949.188 -65.5387 1073.75 131.085C1075.65 134.081 1077.51 137.093 1079.32 140.119L1248.31 37.9085ZM1076.75 141.671C1074.95 138.663 1073.11 135.669 1071.22 132.69C947.541 -62.5336 689.02 -120.533 493.797 3.14456C298.573 126.822 240.574 385.343 364.251 580.566C487.929 775.79 746.449 833.789 941.673 710.112C1133.07 588.86 1192.57 338.004 1078.29 144.25L916.281 242.236C977.354 348.067 944.537 484.189 840.359 550.187C733.458 617.911 591.895 586.152 524.171 479.25C456.447 372.348 488.206 230.785 595.108 163.061C702.01 95.3367 843.573 127.096 911.297 233.998C912.483 235.871 913.639 237.754 914.764 239.647L1076.75 141.671ZM912.197 241.2C911.083 239.324 909.938 237.459 908.763 235.604C841.925 130.102 702.216 98.7576 596.714 165.595C491.211 232.433 459.867 372.142 526.705 477.644C593.543 583.146 733.252 614.49 838.754 547.653C941.55 482.53 973.943 348.226 913.713 243.789L732.39 353.458C734.8 360.166 732.336 367.883 726.063 371.856C718.801 376.457 709.185 374.299 704.584 367.038C699.984 359.776 702.141 350.159 709.403 345.559C716.665 340.958 726.281 343.116 730.882 350.378C730.956 350.495 731.029 350.613 731.1 350.732L912.197 241.2ZM33.3494 790.198C272.803 1168.17 773.328 1280.47 1151.3 1041.01C1529.28 801.558 1641.57 301.034 1402.12 -76.941C1162.66 -454.916 662.139 -567.209 284.164 -327.756C-93.8108 -88.3019 -206.104 412.223 33.3494 790.198Z" fill="url(#paint1_linear)" fill-opacity="0.3"/>
</g>
<defs>
<linearGradient id="paint0_linear" x1="1207.77" y1="171.118" x2="662.588" y2="-129.046" gradientUnits="userSpaceOnUse">
<stop stop-color="#FF6D00"/>
<stop offset="0.444967" stop-color="#FF6D00" stop-opacity="0.18"/>
<stop offset="1" stop-color="#FF6D00" stop-opacity="0"/>
</linearGradient>
<linearGradient id="paint1_linear" x1="717.733" y1="-453.638" x2="717.733" y2="1166.89" gradientUnits="userSpaceOnUse">
<stop stop-color="#FF6D00" stop-opacity="0.69"/>
<stop offset="0.377257" stop-color="#FF6D00" stop-opacity="0.3"/>
<stop offset="0.783515" stop-color="#FF6D00" stop-opacity="0"/>
</linearGradient>
</defs>
</svg>
